<svg xmlns:mydata="http://www.w3.org/2000/svg" xmlns="http://www.w3.org/2000/svg" mydata:contrastcolor="1a330e" mydata:template="Contrast" mydata:presentation="2.5" mydata:layouttype="undefined" mydata:specialfontid="undefined" mydata:id1="5" mydata:id2="230" mydata:companyname="RÚCULA" viewBox="167.143 477.746 1080 253.106" width="1080" height="253.106"><defs><path x1="65" y1="235" x2="485" y2="235" gradientUnits="userSpaceOnUse" id="a" d=""><stop offset="0" stop-color="#56ab2f"/><stop offset="1" stop-color="#a8e063"/></path></defs><g data-paper-data="{&amp;quot;isGlobalGroup&amp;quot;:true,&amp;quot;bounds&amp;quot;:{&amp;quot;x&amp;quot;:65.00000000000003,&amp;quot;y&amp;quot;:185.78632756578125,&amp;quot;width&amp;quot;:420,&amp;quot;height&amp;quot;:98.42820707225857}}" fill="url(#a)" fill-rule="none" stroke-miterlimit="10" font-family="none" font-weight="none" font-size="none" text-anchor="none" style="mix-blend-mode:normal"><g data-paper-data="{&amp;quot;isPrimaryText&amp;quot;:true}" fill-rule="nonzero" fill="#fff"><path d="M651.549 604.761c0 4.353 -0.54 8.241 -1.615 11.664 -1.075 3.423 -2.53 6.441 -4.364 9.059a30.765 30.765 0 0 1 -6.344 6.711 38.232 38.232 0 0 1 -7.519 4.582 36.195 36.195 0 0 1 -7.92 2.605c-2.667 0.54 -5.174 0.807 -7.521 0.807l39.831 34.401H626.606l-39.754 -34.401h-13.716v-19.072h43.128a22.063 22.063 0 0 0 6.565 -1.502 16.305 16.305 0 0 0 5.135 -3.266 13.95 13.95 0 0 0 3.338 -4.95c0.782 -1.931 1.173 -4.145 1.173 -6.639v-12.029c0 -1.075 -0.134 -1.895 -0.404 -2.456a2.947 2.947 0 0 0 -1.026 -1.247 2.98 2.98 0 0 0 -1.319 -0.478 12.327 12.327 0 0 0 -1.286 -0.072H565.509v86.112h-19.07v-95.575a9.753 9.753 0 0 1 2.751 -6.822 9.046 9.046 0 0 1 3.042 -2.052c1.175 -0.489 2.445 -0.733 3.816 -0.733h72.393c4.256 0 7.851 0.769 10.785 2.309 2.931 1.543 5.318 3.471 7.149 5.796a22.497 22.497 0 0 1 3.963 7.516c0.807 2.69 1.209 5.21 1.209 7.555z" data-paper-data="{&amp;quot;glyphName&amp;quot;:&amp;quot;R&amp;quot;,&amp;quot;glyphIndex&amp;quot;:0,&amp;quot;firstGlyphOfWord&amp;quot;:true,&amp;quot;word&amp;quot;:1}"/><path d="M773.748 664.982c0 1.371 -0.244 2.641 -0.733 3.813 -0.489 1.175 -1.175 2.188 -2.057 3.045a9.753 9.753 0 0 1 -6.819 2.751H721.157c-4.06 0 -8.167 -0.44 -12.325 -1.322a54.813 54.813 0 0 1 -12.065 -4.071 51.75 51.75 0 0 1 -10.965 -7.005 45.687 45.687 0 0 1 -8.987 -10.085c-2.566 -3.888 -4.582 -8.337 -6.051 -13.348 -1.466 -5.014 -2.201 -10.599 -2.201 -16.761v-52.591h19.072v52.591c0 5.379 0.746 9.926 2.237 13.641 1.491 3.718 3.387 6.822 5.683 9.316 2.299 2.494 4.819 4.449 7.557 5.868 2.736 1.417 5.341 2.469 7.809 3.153 2.469 0.687 4.647 1.113 6.531 1.286 1.88 0.17 3.114 0.257 3.703 0.257h33.519v-86.112h19.072zm-15.256 -113.176 -38.289 13.716 -5.061 -11.003 35.28 -20.538z" data-paper-data="{&amp;quot;glyphName&amp;quot;:&amp;quot;Ú&amp;quot;,&amp;quot;glyphIndex&amp;quot;:1,&amp;quot;word&amp;quot;:1}"/><path d="M890.079 674.589h-68.801c-1.761 0 -3.657 -0.206 -5.683 -0.622a29.219 29.219 0 0 1 -6.017 -1.941 27.823 27.823 0 0 1 -5.683 -3.412 23.138 23.138 0 0 1 -4.806 -5.061c-1.394 -1.98 -2.507 -4.279 -3.338 -6.894 -0.831 -2.618 -1.247 -5.565 -1.247 -8.841v-51.637c0 -1.761 0.208 -3.654 0.625 -5.683 0.414 -2.031 1.062 -4.037 1.944 -6.017 0.879 -1.98 2.029 -3.875 3.446 -5.683a23.894 23.894 0 0 1 5.099 -4.806c1.98 -1.394 4.266 -2.505 6.858 -3.338 2.592 -0.831 5.526 -1.245 8.802 -1.245h68.801v19.07h-68.801c-2.494 0 -4.402 0.661 -5.721 1.98 -1.322 1.322 -1.98 3.276 -1.98 5.868v51.49c0 2.445 0.671 4.341 2.016 5.685 1.345 1.345 3.24 2.016 5.683 2.016h68.804z" data-paper-data="{&amp;quot;glyphName&amp;quot;:&amp;quot;C&amp;quot;,&amp;quot;glyphIndex&amp;quot;:2,&amp;quot;word&amp;quot;:1}"/><path d="M1011.178 664.982c0 1.371 -0.244 2.641 -0.733 3.813 -0.489 1.175 -1.173 2.188 -2.055 3.045a9.753 9.753 0 0 1 -6.822 2.751h-42.981c-4.058 0 -8.167 -0.44 -12.322 -1.322a54.813 54.813 0 0 1 -12.065 -4.071 51.75 51.75 0 0 1 -10.967 -7.005 45.687 45.687 0 0 1 -8.985 -10.085c-2.569 -3.888 -4.585 -8.337 -6.051 -13.348 -1.468 -5.014 -2.201 -10.599 -2.201 -16.761v-52.591h19.07v52.591c0 5.379 0.746 9.926 2.237 13.641 1.491 3.718 3.387 6.822 5.683 9.316 2.301 2.494 4.819 4.449 7.557 5.868 2.739 1.417 5.341 2.469 7.812 3.153 2.469 0.687 4.644 1.113 6.526 1.286 1.885 0.17 3.119 0.257 3.705 0.257h33.521v-86.112h19.07z" data-paper-data="{&amp;quot;glyphName&amp;quot;:&amp;quot;U&amp;quot;,&amp;quot;glyphIndex&amp;quot;:3,&amp;quot;word&amp;quot;:1}"/><path d="M1129.932 674.589h-86.991a9.818 9.818 0 0 1 -3.816 -0.73 9.324 9.324 0 0 1 -3.045 -2.019 9.324 9.324 0 0 1 -2.016 -3.045 9.818 9.818 0 0 1 -0.733 -3.813v-95.572h19.07v86.109h77.529z" data-paper-data="{&amp;quot;glyphName&amp;quot;:&amp;quot;L&amp;quot;,&amp;quot;glyphIndex&amp;quot;:4,&amp;quot;word&amp;quot;:1}"/><path d="M1247.143 674.589h-19.07V648.771h-67.042v25.817h-19.07v-52.586c0 -7.678 1.319 -14.745 3.96 -21.199 2.641 -6.454 6.308 -12.003 11.003 -16.65 4.693 -4.647 10.245 -8.265 16.65 -10.857 6.403 -2.592 13.397 -3.885 20.978 -3.885h42.981a9.627 9.627 0 0 1 6.822 2.785c0.879 0.882 1.566 1.908 2.055 3.081 0.489 1.175 0.733 2.422 0.733 3.741zm-86.112 -44.887h67.042v-41.223h-33.521c-0.586 0 -1.823 0.085 -3.703 0.257 -1.885 0.17 -4.063 0.599 -6.531 1.283s-5.071 1.736 -7.809 3.155c-2.739 1.417 -5.259 3.374 -7.555 5.865 -2.299 2.494 -4.194 5.613 -5.685 9.352 -1.491 3.741 -2.237 8.277 -2.237 13.608z" data-paper-data="{&amp;quot;glyphName&amp;quot;:&amp;quot;A&amp;quot;,&amp;quot;glyphIndex&amp;quot;:5,&amp;quot;lastGlyphOfWord&amp;quot;:true,&amp;quot;word&amp;quot;:1}"/></g><g data-paper-data="{&amp;quot;fillRule&amp;quot;:&amp;quot;nonzero&amp;quot;,&amp;quot;fillRuleOriginal&amp;quot;:&amp;quot;evenodd&amp;quot;,&amp;quot;isIcon&amp;quot;:true,&amp;quot;iconStyle&amp;quot;:&amp;quot;standalone&amp;quot;,&amp;quot;selectedEffects&amp;quot;:{&amp;quot;container&amp;quot;:&amp;quot;circle_simple_filledplus&amp;quot;,&amp;quot;transformation&amp;quot;:&amp;quot;rotate0;translate50&amp;quot;,&amp;quot;pattern&amp;quot;:&amp;quot;&amp;quot;},&amp;quot;bounds&amp;quot;:{&amp;quot;x&amp;quot;:65.00000000000003,&amp;quot;y&amp;quot;:185.78632756578125,&amp;quot;width&amp;quot;:98.42720707015476,&amp;quot;height&amp;quot;:98.42820707225857},&amp;quot;widthRatioIconToContainer&amp;quot;:0.6219622188226361,&amp;quot;heightRatioIconToContainer&amp;quot;:0.6385273315308417,&amp;quot;relativeBoundsIconToContainer&amp;quot;:{&amp;quot;top&amp;quot;:0.006865941993231868,&amp;quot;left&amp;quot;:0.0016964764899830864},&amp;quot;iconType&amp;quot;:&amp;quot;icon&amp;quot;,&amp;quot;rawIconId&amp;quot;:&amp;quot;1220285&amp;quot;,&amp;quot;combineTerms&amp;quot;:&amp;quot;Arugula&amp;quot;,&amp;quot;blockLetter&amp;quot;:&amp;quot;O&amp;quot;,&amp;quot;suitableAsStandaloneIcon&amp;quot;:true}" fill-rule="evenodd"><g data-paper-data="{&amp;quot;isPathIcon&amp;quot;:true}" fill="#fff"><path d="m420.187 608.043 0.031 -1.26 0.018 -1.268 0.005 -1.216v-0.026l-0.005 -1.265 -0.018 -1.265 -0.031 -1.26 -0.044 -1.268 -0.051 -1.26 -0.069 -1.265 -0.077 -1.265 -0.095 -1.26 -0.103 -1.26 -0.118 -1.26 -0.129 -1.26 -0.144 -1.257 -0.154 -1.257 -0.17 -1.255 -0.18 -1.252 -0.193 -1.252 -0.206 -1.247 -0.219 -1.247 -0.231 -1.245 -0.244 -1.245 -0.257 -1.239 -0.27 -1.234 -0.28 -1.234 -0.296 -1.234 -0.309 -1.227 -0.319 -1.227 -0.332 -1.221 -0.345 -1.219 -0.357 -1.214 -0.37 -1.209 -0.381 -1.209 -0.393 -1.203 -0.406 -1.198 -0.417 -1.196 -0.429 -1.191 -0.442 -1.183 -0.453 -1.183 -0.463 -1.178 -0.476 -1.17 -0.481 -1.149 -0.496 -1.162 -0.512 -1.157 -0.519 -1.152 -0.535 -1.149 -0.54 -1.142 -0.558 -1.137 -0.566 -1.131 -0.579 -1.126 -0.589 -1.121 -0.599 -1.113 -0.612 -1.106 -0.625 -1.106 -0.633 -1.095 -0.643 -1.088 -0.658 -1.08 -0.669 -1.08 -0.676 -1.07 -0.689 -1.062 -0.699 -1.054 -0.71 -1.047 -0.72 -1.041 -0.733 -1.034 -0.743 -1.026 -0.751 -1.018 -0.764 -1.011 -0.771 -1.003 -0.784 -0.995 -0.792 -0.985 -0.802 -0.977 -0.813 -0.972 -0.82 -0.964 -0.831 -0.951 -0.841 -0.946 -0.849 -0.939 -0.859 -0.926 -0.867 -0.923 -0.874 -0.91 -0.885 -0.9 -0.514 -0.514 -0.897 -0.892 -0.908 -0.882 -0.915 -0.872 -0.926 -0.864 -0.931 -0.854 -0.941 -0.846 -0.949 -0.836 -0.959 -0.828 -0.967 -0.818 -0.975 -0.807 -0.982 -0.797 -0.99 -0.789 -0.998 -0.777 -1.003 -0.769 -1.016 -0.759 -1.023 -0.746 -1.029 -0.738 -1.036 -0.728 -1.044 -0.715 -1.052 -0.705 -1.059 -0.694 -1.065 -0.687 -1.072 -0.669 -1.077 -0.666 -1.088 -0.651 -1.09 -0.64 -1.098 -0.63 -1.106 -0.617 -1.111 -0.607 -1.116 -0.591 -1.124 -0.586 -1.129 -0.573 -1.131 -0.561 -1.142 -0.55 -1.144 -0.54 -1.149 -0.527 -1.155 -0.514 -1.155 -0.504 -0.674 -0.283 -1.165 -0.489 -1.173 -0.476 -1.178 -0.463 -1.183 -0.455 -1.183 -0.437 -1.193 -0.432 -1.193 -0.417 -1.201 -0.406 -1.203 -0.393 -1.206 -0.381 -1.209 -0.368 -1.219 -0.357 -1.216 -0.345 -1.224 -0.332 -1.224 -0.319 -1.229 -0.306 -1.232 -0.293 -1.234 -0.283 -1.234 -0.267 -1.242 -0.257 -1.242 -0.244 -1.245 -0.229 -1.247 -0.219 -1.25 -0.206 -1.252 -0.193 -1.252 -0.18 -1.255 -0.167 -1.255 -0.154 -1.257 -0.144 -1.26 -0.129 -1.26 -0.116 -1.26 -0.103 -1.26 -0.095 -1.265 -0.077 -1.26 -0.067 -1.268 -0.057 -1.26 -0.041 -1.268 -0.031 -1.26 -0.015 -1.247 -0.008 -1.26 0.008 -1.268 0.018 -1.265 0.031 -1.26 0.041 -1.268 0.057 -1.26 0.067 -1.265 0.08 -1.26 0.093 -1.26 0.103 -1.26 0.118 -1.26 0.129 -1.26 0.144 -1.255 0.154 -1.255 0.17 -1.252 0.18 -1.252 0.193 -1.25 0.206 -1.247 0.219 -1.245 0.231 -1.242 0.244 -1.239 0.257 -1.234 0.27 -1.234 0.283 -1.234 0.293 -1.229 0.309 -1.224 0.319 -1.221 0.334 -1.219 0.342 -1.214 0.355 -1.209 0.37 -1.209 0.381 -1.203 0.393 -1.198 0.406 -1.196 0.417 -1.191 0.429 -1.183 0.442 -1.183 0.453 -1.178 0.465 -1.17 0.476 -1.149 0.478 -1.162 0.499 -1.157 0.509 -1.155 0.522 -1.147 0.532 -1.142 0.545 -1.137 0.553 -1.131 0.568 -1.126 0.576 -1.121 0.591 -1.113 0.599 -1.108 0.612 -1.103 0.622 -1.095 0.635 -1.088 0.645 -1.083 0.656 -1.077 0.669 -1.07 0.676 -1.062 0.689 -1.054 0.699 -1.049 0.71 -1.039 0.72 -1.034 0.733 -1.029 0.741 -1.016 0.753 -1.011 0.761 -1.003 0.774 -0.995 0.782 -0.985 0.792 -0.98 0.802 -0.969 0.813 -0.964 0.823 -0.951 0.831 -0.946 0.838 -0.939 0.851 -0.928 0.859 -0.921 0.867 -0.91 0.877 -0.9 0.879 -0.517 0.517 -0.89 0.9 -0.882 0.905 -0.874 0.915 -0.861 0.926 -0.854 0.931 -0.849 0.941 -0.833 0.951 -0.828 0.957 -0.818 0.964 -0.807 0.977 -0.797 0.98 -0.789 0.99 -0.777 1.003 -0.769 1.003 -0.759 1.013 -0.746 1.021 -0.738 1.031 -0.728 1.036 -0.715 1.044 -0.707 1.054 -0.694 1.054 -0.684 1.067 -0.671 1.072 -0.663 1.08 -0.651 1.083 -0.643 1.093 -0.627 1.098 -0.617 1.106 -0.607 1.111 -0.594 1.116 -0.584 1.124 -0.573 1.131 -0.561 1.131 -0.55 1.139 -0.54 1.144 -0.527 1.149 -0.514 1.157 -0.504 1.152 -0.285 0.671 -0.489 1.167 -0.476 1.173 -0.463 1.178 -0.453 1.183 -0.44 1.185 -0.429 1.191 -0.417 1.193 -0.406 1.201 -0.393 1.201 -0.381 1.209 -0.368 1.211 -0.357 1.214 -0.345 1.219 -0.332 1.221 -0.319 1.227 -0.306 1.227 -0.293 1.234 -0.283 1.234 -0.267 1.237 -0.257 1.239 -0.244 1.242 -0.231 1.245 -0.216 1.247 -0.206 1.25 -0.193 1.25 -0.18 1.255 -0.167 1.255 -0.154 1.255 -0.144 1.26 -0.129 1.26 -0.116 1.26 -0.105 1.26 -0.093 1.26 -0.077 1.263 -0.067 1.263 -0.057 1.263 -0.041 1.265 -0.031 1.263 -0.018 1.265 -0.005 1.245 0.008 1.263 0.018 1.265 0.031 1.263 0.041 1.265 0.057 1.263 0.067 1.263 0.077 1.265 0.095 1.26 0.103 1.263 0.118 1.26 0.129 1.26 0.144 1.255 0.154 1.26 0.167 1.252 0.18 1.252 0.195 1.252 0.206 1.247 0.219 1.247 0.231 1.247 0.244 1.242 0.257 1.239 0.267 1.237 0.283 1.234 0.296 1.234 0.309 1.224 0.316 1.227 0.334 1.221 0.345 1.219 0.355 1.214 0.37 1.211 0.381 1.209 0.393 1.201 0.406 1.198 0.417 1.196 0.429 1.191 0.442 1.185 0.453 1.183 0.463 1.175 0.478 1.17 0.478 1.149 0.499 1.162 0.509 1.157 0.522 1.152 0.532 1.149 0.543 1.142 0.555 1.137 0.566 1.131 0.579 1.126 0.591 1.121 0.599 1.113 0.612 1.108 0.622 1.101 0.635 1.098 0.643 1.088 0.658 1.083 0.666 1.08 0.679 1.067 0.689 1.059 0.699 1.057 0.71 1.047 0.72 1.041 0.733 1.034 0.741 1.029 0.753 1.016 0.761 1.011 0.771 1.003 0.784 0.993 0.792 0.987 0.802 0.98 0.813 0.969 0.823 0.962 0.831 0.954 0.838 0.946 0.849 0.939 0.861 0.928 0.867 0.921 0.874 0.91 0.882 0.9 0.514 0.517 0.9 0.89 0.908 0.882 0.915 0.874 0.926 0.861 0.931 0.854 0.941 0.849 0.949 0.833 0.959 0.828 0.964 0.818 0.975 0.807 0.982 0.797 0.99 0.787 0.998 0.779 1.008 0.771 1.013 0.753 1.021 0.748 1.029 0.738 1.039 0.725 1.044 0.72 1.052 0.702 1.057 0.697 1.065 0.681 1.072 0.674 1.08 0.663 1.085 0.651 1.093 0.643 1.098 0.627 1.106 0.617 1.111 0.607 1.116 0.594 1.124 0.584 1.126 0.573 1.134 0.561 1.142 0.55 1.144 0.54 1.149 0.527 1.155 0.517 1.155 0.501 0.671 0.285 1.167 0.489 1.173 0.473 1.178 0.465 1.183 0.453 1.183 0.44 1.193 0.429 1.193 0.417 1.198 0.406 1.203 0.393 1.209 0.381 1.211 0.368 1.214 0.36 1.219 0.342 1.221 0.329 1.224 0.321 1.229 0.309 1.234 0.291 1.234 0.283 1.234 0.267 1.239 0.257 1.245 0.244 1.245 0.231 1.247 0.216 1.247 0.206 1.252 0.193 1.252 0.18 1.255 0.167 1.26 0.154 1.255 0.144 1.26 0.129 1.26 0.118 1.26 0.103 1.26 0.093 1.263 0.077 1.265 0.067 1.263 0.057 1.263 0.041 1.265 0.031 1.265 0.018 1.242 0.005 1.265 -0.008 1.265 -0.018 1.263 -0.031 1.265 -0.041 1.263 -0.057 1.265 -0.067 1.26 -0.077 1.263 -0.095 1.26 -0.103 1.26 -0.118 1.26 -0.129 1.26 -0.144 1.255 -0.154 1.255 -0.167 1.252 -0.18 1.252 -0.195 1.247 -0.206 1.247 -0.219 1.245 -0.231 1.242 -0.244 1.239 -0.257 1.239 -0.267 1.234 -0.283 1.234 -0.296 1.224 -0.306 1.227 -0.321 1.221 -0.332 1.216 -0.345 1.216 -0.355 1.211 -0.37 1.209 -0.381 1.201 -0.393 1.198 -0.406 1.196 -0.417 1.188 -0.429 1.188 -0.442 1.183 -0.453 1.175 -0.463 1.17 -0.478 1.149 -0.478 1.162 -0.499 1.157 -0.509 1.152 -0.522 1.149 -0.532 1.142 -0.545 1.137 -0.553 1.131 -0.566 1.126 -0.579 1.119 -0.591 1.116 -0.599 1.108 -0.612 1.101 -0.622 1.095 -0.635 1.09 -0.643 1.083 -0.658 1.075 -0.666 1.07 -0.679 1.062 -0.689 1.057 -0.699 1.047 -0.71 1.041 -0.72 1.034 -0.733 1.029 -0.741 1.013 -0.753 1.011 -0.761 1.003 -0.771 0.995 -0.784 0.987 -0.795 0.977 -0.797 0.972 -0.815 0.962 -0.823 0.954 -0.831 0.946 -0.841 0.936 -0.849 0.931 -0.859 0.918 -0.867 0.913 -0.874 0.9 -0.882 0.517 -0.514 0.89 -0.9 0.882 -0.908 0.874 -0.915 0.861 -0.923 0.854 -0.933 0.849 -0.941 0.833 -0.949 0.825 -0.959 0.818 -0.967 0.807 -0.972 0.8 -0.982 0.787 -0.99 0.779 -1 0.771 -1.003 0.753 -1.016 0.748 -1.023 0.738 -1.029 0.725 -1.036 0.72 -1.044 0.702 -1.052 0.694 -1.054 0.684 -1.07 0.674 -1.072 0.663 -1.077 0.651 -1.088 0.643 -1.09 0.625 -1.098 0.617 -1.106 0.607 -1.111 0.597 -1.116 0.584 -1.124 0.573 -1.129 0.561 -1.131 0.55 -1.142 0.54 -1.144 0.525 -1.149 0.517 -1.155 0.501 -1.155 0.288 -0.674 0.489 -1.165 0.473 -1.173 0.463 -1.178 0.453 -1.183 0.442 -1.183 0.429 -1.193 0.417 -1.193 0.404 -1.201 0.393 -1.203 0.381 -1.206 0.37 -1.209 0.355 -1.216 0.345 -1.219 0.334 -1.221 0.316 -1.227 0.309 -1.229 0.293 -1.229 0.283 -1.234 0.267 -1.239 0.257 -1.239 0.242 -1.242 0.231 -1.245 0.219 -1.247 0.206 -1.25 0.193 -1.252 0.18 -1.252 0.167 -1.255 0.154 -1.255 0.141 -1.257 0.129 -1.26 0.118 -1.26 0.105 -1.26 0.09 -1.26 0.08 -1.265 0.067 -1.26 0.054 -1.265zm-5.907 -6.156 0.018 1.209 0.005 1.178v0.028l-0.005 1.185 -0.018 1.209 -0.026 1.209 -0.044 1.209 -0.051 1.201 -0.064 1.209 -0.075 1.201 -0.087 1.203 -0.1 1.203 -0.111 1.201 -0.126 1.198 -0.134 1.198 -0.149 1.198 -0.159 1.196 -0.172 1.193 -0.18 1.191 -0.198 1.191 -0.206 1.188 -0.224 1.185 -0.231 1.183 -0.244 1.183 -0.257 1.175 -0.267 1.175 -0.28 1.173 -0.293 1.17 -0.303 1.165 -0.316 1.165 -0.329 1.16 -0.339 1.157 -0.35 1.152 -0.365 1.149 -0.373 1.147 -0.386 1.142 -0.399 1.139 -0.409 1.137 -0.422 1.131 -0.432 1.124 -0.442 1.124 -0.453 1.116 -0.463 1.116 -0.273 0.63 -0.483 1.111 -0.494 1.106 -0.501 1.093 -0.514 1.093 -0.525 1.085 -0.535 1.083 -0.548 1.075 -0.555 1.07 -0.566 1.065 -0.581 1.057 -0.589 1.054 -0.599 1.044 -0.609 1.041 -0.617 1.034 -0.635 1.029 -0.64 1.021 -0.653 1.013 -0.661 1.008 -0.669 1.003 -0.687 0.993 -0.692 0.987 -0.702 0.98 -0.712 0.972 -0.72 0.967 -0.733 0.957 -0.743 0.951 -0.751 0.944 -0.761 0.936 -0.769 0.928 -0.779 0.921 -0.789 0.913 -0.797 0.905 -0.807 0.9 -0.815 0.887 -0.823 0.882 -0.833 0.874 -0.841 0.864 -0.849 0.859 -0.489 0.481 -0.867 0.851 -0.869 0.836 -0.879 0.828 -0.887 0.818 -0.895 0.813 -0.9 0.8 -0.91 0.792 -0.918 0.784 -0.926 0.774 -0.933 0.764 -0.941 0.753 -0.946 0.746 -0.957 0.735 -0.962 0.728 -0.969 0.715 -0.977 0.707 -0.985 0.697 -0.99 0.687 -1 0.676 -1.003 0.669 -1.013 0.653 -1.018 0.645 -1.023 0.635 -1.034 0.625 -1.036 0.612 -1.044 0.604 -1.049 0.594 -1.054 0.581 -1.065 0.573 -1.067 0.561 -1.072 0.55 -1.08 0.54 -1.08 0.53 -1.093 0.517 -1.093 0.509 -1.101 0.496 -1.106 0.489 -1.106 0.473 -1.098 0.458 -1.119 0.453 -1.121 0.442 -1.129 0.432 -1.129 0.419 -1.137 0.411 -1.137 0.396 -1.144 0.386 -1.147 0.375 -1.149 0.363 -1.152 0.352 -1.157 0.339 -1.157 0.329 -1.167 0.314 -1.167 0.309 -1.167 0.288 -1.173 0.283 -1.175 0.267 -1.178 0.257 -1.18 0.242 -1.183 0.231 -1.188 0.221 -1.183 0.208 -1.193 0.195 -1.191 0.183 -1.193 0.172 -1.196 0.159 -1.198 0.149 -1.198 0.134 -1.198 0.123 -1.201 0.113 -1.203 0.098 -1.203 0.09 -1.203 0.077 -1.203 0.062 -1.206 0.051 -1.206 0.041 -1.209 0.028 -1.206 0.018 -1.209 0.005 -1.188 -0.005 -1.206 -0.018 -1.209 -0.026 -1.206 -0.044 -1.206 -0.051 -1.203 -0.064 -1.206 -0.077 -1.203 -0.087 -1.201 -0.1 -1.201 -0.111 -1.201 -0.123 -1.198 -0.136 -1.196 -0.147 -1.196 -0.159 -1.193 -0.172 -1.193 -0.185 -1.188 -0.195 -1.188 -0.206 -1.183 -0.221 -1.183 -0.231 -1.183 -0.247 -1.178 -0.255 -1.175 -0.27 -1.173 -0.28 -1.17 -0.291 -1.167 -0.306 -1.162 -0.314 -1.157 -0.329 -1.157 -0.339 -1.157 -0.352 -1.149 -0.36 -1.144 -0.378 -1.144 -0.386 -1.137 -0.399 -1.137 -0.409 -1.131 -0.419 -1.124 -0.432 -1.124 -0.442 -1.119 -0.455 -1.113 -0.463 -0.63 -0.27 -1.113 -0.486 -1.101 -0.489 -1.095 -0.507 -1.093 -0.514 -1.085 -0.525 -1.08 -0.535 -1.08 -0.545 -1.067 -0.558 -1.065 -0.566 -1.059 -0.581 -1.052 -0.589 -1.047 -0.599 -1.039 -0.609 -1.034 -0.617 -1.029 -0.635 -1.021 -0.64 -1.013 -0.651 -1.008 -0.663 -1.003 -0.669 -0.993 -0.684 -0.987 -0.694 -0.977 -0.702 -0.977 -0.712 -0.964 -0.72 -0.957 -0.733 -0.951 -0.743 -0.944 -0.751 -0.936 -0.759 -0.928 -0.771 -0.921 -0.779 -0.913 -0.789 -0.905 -0.797 -0.897 -0.805 -0.89 -0.815 -0.882 -0.823 -0.874 -0.836 -0.864 -0.841 -0.859 -0.849 -0.483 -0.486 -0.849 -0.869 -0.836 -0.869 -0.828 -0.879 -0.82 -0.887 -0.81 -0.892 -0.8 -0.9 -0.792 -0.913 -0.784 -0.918 -0.771 -0.926 -0.766 -0.933 -0.756 -0.939 -0.746 -0.949 -0.735 -0.951 -0.725 -0.967 -0.717 -0.969 -0.705 -0.977 -0.697 -0.985 -0.687 -0.99 -0.676 -0.998 -0.666 -1.003 -0.656 -1.016 -0.645 -1.018 -0.635 -1.023 -0.625 -1.029 -0.615 -1.041 -0.602 -1.041 -0.594 -1.052 -0.581 -1.054 -0.573 -1.062 -0.561 -1.07 -0.55 -1.072 -0.54 -1.077 -0.53 -1.085 -0.517 -1.09 -0.509 -1.093 -0.496 -1.101 -0.486 -1.103 -0.476 -1.111 -0.455 -1.095 -0.455 -1.119 -0.442 -1.121 -0.432 -1.126 -0.422 -1.131 -0.409 -1.131 -0.396 -1.142 -0.386 -1.144 -0.375 -1.144 -0.363 -1.149 -0.352 -1.155 -0.339 -1.157 -0.329 -1.157 -0.314 -1.167 -0.306 -1.165 -0.291 -1.17 -0.283 -1.173 -0.267 -1.175 -0.257 -1.178 -0.242 -1.18 -0.231 -1.183 -0.221 -1.183 -0.206 -1.191 -0.198 -1.191 -0.183 -1.191 -0.172 -1.193 -0.159 -1.196 -0.149 -1.196 -0.134 -1.198 -0.123 -1.201 -0.113 -1.201 -0.098 -1.203 -0.087 -1.201 -0.077 -1.206 -0.064 -1.203 -0.051 -1.206 -0.041 -1.206 -0.028 -1.209 -0.018 -1.206 -0.005 -1.209 0.005 -1.183 0.018 -1.209 0.028 -1.209 0.041 -1.209 0.051 -1.203 0.064 -1.206 0.077 -1.203 0.087 -1.203 0.1 -1.203 0.111 -1.201 0.123 -1.201 0.136 -1.198 0.147 -1.196 0.159 -1.196 0.172 -1.193 0.185 -1.191 0.195 -1.191 0.206 -1.188 0.221 -1.183 0.231 -1.183 0.247 -1.183 0.257 -1.178 0.267 -1.175 0.28 -1.173 0.291 -1.17 0.306 -1.165 0.316 -1.165 0.327 -1.157 0.339 -1.157 0.352 -1.155 0.363 -1.149 0.375 -1.147 0.386 -1.142 0.399 -1.139 0.409 -1.131 0.419 -1.131 0.432 -1.129 0.442 -1.124 0.455 -1.119 0.463 -1.113 0.27 -0.63 0.486 -1.111 0.491 -1.103 0.504 -1.095 0.514 -1.093 0.525 -1.085 0.535 -1.08 0.548 -1.077 0.555 -1.07 0.566 -1.065 0.581 -1.054 0.589 -1.054 0.599 -1.049 0.609 -1.039 0.62 -1.034 0.63 -1.029 0.643 -1.021 0.651 -1.013 0.663 -1.008 0.669 -1 0.684 -0.995 0.694 -0.987 0.702 -0.977 0.712 -0.975 0.72 -0.967 0.733 -0.957 0.741 -0.951 0.751 -0.944 0.761 -0.936 0.771 -0.926 0.779 -0.923 0.787 -0.913 0.797 -0.905 0.807 -0.897 0.815 -0.89 0.823 -0.882 0.836 -0.872 0.841 -0.867 0.849 -0.859 0.489 -0.483 0.864 -0.849 0.872 -0.836 0.879 -0.828 0.885 -0.818 0.895 -0.813 0.9 -0.797 0.913 -0.795 0.918 -0.784 0.926 -0.771 0.931 -0.766 0.941 -0.756 0.949 -0.743 0.954 -0.738 0.964 -0.725 0.969 -0.715 0.977 -0.707 0.985 -0.694 0.99 -0.689 0.998 -0.676 1.005 -0.666 1.011 -0.656 1.018 -0.643 1.026 -0.638 1.031 -0.625 1.039 -0.612 1.041 -0.604 1.052 -0.591 1.054 -0.584 1.062 -0.573 1.067 -0.561 1.075 -0.55 1.08 -0.54 1.08 -0.53 1.09 -0.514 1.095 -0.509 1.101 -0.499 1.106 -0.486 1.106 -0.476 1.098 -0.455 1.119 -0.455 1.121 -0.442 1.126 -0.432 1.131 -0.419 1.134 -0.411 1.139 -0.396 1.144 -0.386 1.144 -0.375 1.149 -0.36 1.157 -0.355 1.157 -0.339 1.157 -0.327 1.162 -0.316 1.167 -0.306 1.17 -0.291 1.173 -0.28 1.175 -0.27 1.178 -0.255 1.183 -0.244 1.183 -0.231 1.183 -0.221 1.188 -0.206 1.188 -0.198 1.193 -0.18 1.193 -0.175 1.196 -0.159 1.196 -0.149 1.198 -0.134 1.201 -0.123 1.201 -0.113 1.201 -0.098 1.203 -0.087 1.203 -0.077 1.209 -0.064 1.203 -0.051 1.209 -0.041 1.203 -0.026 1.209 -0.021 1.209 -0.005 1.185 0.005 1.209 0.018 1.209 0.028 1.203 0.041 1.209 0.051 1.203 0.064 1.203 0.077 1.203 0.087 1.203 0.103 1.201 0.108 1.198 0.123 1.198 0.136 1.198 0.147 1.196 0.159 1.193 0.172 1.191 0.185 1.191 0.195 1.185 0.208 1.185 0.219 1.185 0.234 1.183 0.244 1.175 0.257 1.175 0.267 1.17 0.283 1.17 0.288 1.167 0.309 1.162 0.314 1.162 0.327 1.157 0.339 1.152 0.352 1.149 0.363 1.147 0.375 1.142 0.386 1.139 0.399 1.134 0.411 1.131 0.417 1.126 0.432 1.121 0.442 1.119 0.455 1.113 0.465 0.63 0.267 1.113 0.489 1.106 0.489 1.093 0.504 1.093 0.514 1.085 0.525 1.08 0.535 1.08 0.548 1.067 0.555 1.062 0.568 1.059 0.579 1.054 0.591 1.044 0.597 1.041 0.609 1.034 0.62 1.029 0.63 1.018 0.643 1.016 0.651 1.008 0.663 1.003 0.671 0.993 0.681 0.985 0.694 0.98 0.702 0.977 0.712 0.962 0.72 0.959 0.733 0.951 0.741 0.944 0.753 0.936 0.759 0.928 0.771 0.921 0.779 0.913 0.787 0.905 0.8 0.9 0.805 0.887 0.815 0.879 0.825 0.874 0.833 0.867 0.841 0.856 0.849 0.483 0.489 0.851 0.864 0.836 0.874 0.828 0.877 0.818 0.885 0.81 0.895 0.802 0.903 0.792 0.91 0.782 0.918 0.774 0.926 0.766 0.931 0.753 0.941 0.746 0.951 0.735 0.951 0.728 0.964 0.715 0.969 0.707 0.977 0.697 0.985 0.687 0.99 0.674 0.998 0.669 1.005 0.653 1.013 0.648 1.018 0.633 1.023 0.625 1.031 0.617 1.039 0.602 1.044 0.591 1.049 0.584 1.054 0.571 1.062 0.561 1.067 0.55 1.075 0.543 1.08 0.527 1.083 0.519 1.09 0.507 1.093 0.496 1.101 0.489 1.106 0.473 1.108 0.458 1.095 0.455 1.119 0.442 1.121 0.432 1.126 0.419 1.131 0.411 1.134 0.396 1.139 0.386 1.144 0.375 1.144 0.363 1.152 0.35 1.152 0.342 1.157 0.327 1.16 0.316 1.165 0.303 1.165 0.293 1.17 0.283 1.173 0.265 1.175 0.257 1.178 0.244 1.183 0.231 1.183 0.221 1.183 0.206 1.188 0.198 1.191 0.183 1.191 0.172 1.193 0.159 1.196 0.147 1.196 0.136 1.198 0.123 1.201 0.111 1.201 0.103 1.203 0.085 1.201 0.077 1.209 0.062 1.201 0.054 1.209 0.039 1.203z"/><path d="M293.693 491.837c-62.105 0 -112.449 50.349 -112.449 112.449 0 62.103 50.343 112.449 112.449 112.449 62.103 0 112.449 -50.346 112.449 -112.449 0 -62.1 -50.346 -112.449 -112.449 -112.449zm17.074 165.518 -2.829 3.165 -1.617 2.361h65.731v4.611h-68.889l-2.931 4.281h56.139v4.611h-59.297l-5.063 7.395 -10.268 -5.482 0.926 -1.913H253.903c-1.26 4.346 -2.289 7.82 -2.577 8.794l-0.489 1.651h-11.525l1.764 -10.44h-17.514v-4.613h18.293l0.723 -4.284H215.414v-4.611h27.944l1.247 -7.367a84.667 84.667 0 0 1 -1.641 -4.037h-16.326v-4.616h14.786c-1.165 -4.063 -1.759 -8.203 -0.386 -10.455a4.071 4.071 0 0 1 3.358 -1.972c1.679 -0.09 2.35 -0.303 2.592 -0.411 -0.005 -0.442 -0.283 -1.669 -2.037 -4.999 -1.157 -2.204 -5.683 -5.297 -9.316 -7.784 -5.493 -3.754 -9.121 -6.241 -8.295 -9.303 0.72 -2.679 4.207 -2.931 5.693 -3.047 5.593 -0.404 10.353 1.831 13.706 3.816 -2.042 -4.161 -6.47 -8.715 -10.075 -12.425 -4.801 -4.937 -7.696 -7.92 -6.495 -10.764 0.972 -2.304 3.839 -2.304 4.778 -2.304 0.797 0 1.707 0.064 2.787 0.201 5.104 0.635 9.098 2.101 11.983 3.466a289.877 289.877 0 0 0 -3.325 -6.213c-6.783 -12.443 -9.571 -18.206 -7.799 -21.189 0.609 -1.029 1.689 -1.617 2.965 -1.617 1.029 0 2.199 0.368 3.687 1.157 2.528 1.337 4.724 2.016 6.531 2.016 2.469 0 3.438 -1.324 3.659 -1.695 2.232 -8.352 8.033 -27.141 15.017 -27.141 1.137 0 2.237 0.442 3.178 1.281 4.58 4.071 3.482 13.744 2.597 21.518v0.008a97.637 97.637 0 0 0 -0.478 4.917c2.803 -0.838 7.025 -1.659 10.453 -1.659 1.306 0 5.274 0 6.629 2.736 0.807 1.63 0.396 3.533 -1.219 5.657 -0.972 1.273 -2.245 2.813 -3.631 4.5l-0.005 0.003v0.003c-2.859 3.466 -11.528 13.981 -10.383 16.151 0 0 0.283 0.267 1.389 0.347 1.448 0.103 2.769 0.159 3.934 0.206 4.186 0.18 6.711 0.283 7.437 2.638 0.802 2.597 -1.342 4.518 -10.869 11.61 -9.915 7.38 -11.258 11.314 -11.073 11.965 0.077 0.067 0.725 0.388 2.289 0.388 1.214 0 2.713 -0.185 4.459 -0.553 6.763 -1.414 11.744 0.723 12.831 5.292 1.255 5.292 -3.253 11.7 -10.967 15.585 -11.325 5.714 -15.994 13.15 -16.858 14.667 -0.291 1.569 -1.239 5.176 -2.415 9.424h31.454l5.529 -11.415h-22.053v-4.613h24.282l0.051 -0.108c-2.021 -2.947 -6.681 -10.517 -5.786 -16.539 0.339 -2.294 1.471 -4.204 3.273 -5.526 2.97 -2.175 5.799 -2.507 7.869 -2.749 0.684 -0.082 1.723 -0.203 1.949 -0.375 0.103 -0.154 0.62 -1.347 -0.972 -7.725 -0.622 -2.489 -1.232 -4.767 -1.782 -6.832 -2.237 -8.37 -3.471 -12.981 -1.378 -15.709 0.622 -0.813 1.836 -1.782 4.055 -1.782 0.815 0 1.723 0.123 2.78 0.378 1.723 0.411 3.672 0.831 5.071 0.831 0.702 0 1.219 -0.113 1.347 -0.296 0.18 -0.247 0.931 -1.862 -1.628 -9.242 -4.166 -12.039 -5.194 -19.671 -3.055 -22.68a3.878 3.878 0 0 1 3.235 -1.669c1.491 0 3.111 0.735 5.091 2.317 3.248 2.592 4.788 2.978 5.418 2.978a0.81 0.81 0 0 0 0.656 -0.278c0.813 -0.823 2.152 -3.78 2.008 -14.328 -0.203 -14.832 1.545 -18.53 3.088 -20.096a3.86 3.86 0 0 1 2.785 -1.214c2.391 0 4.204 2.201 5.364 3.852 0.489 0.699 0.967 1.131 1.247 1.131 0.671 0 2.067 -1.098 3.191 -1.98 2.422 -1.908 5.544 -4.32 9.62 -3.957 2.101 0.185 3.574 0.825 4.5 1.959 1.281 1.569 1.065 3.448 0.892 4.963 -0.252 2.181 -0.172 2.713 1.214 3.371 0.694 0.334 1.538 0.491 2.582 0.491 1.16 0 2.391 -0.201 3.479 -0.378 0.977 -0.159 1.898 -0.309 2.718 -0.309 1.934 0 2.862 0.9 3.299 1.651 1.098 1.903 0.069 4.436 -2.075 8.177 -3.081 5.361 -8.406 9.681 -12.291 12.834 -1.121 0.908 -2.412 1.954 -3.304 2.782l0.342 0.036 10.35 1.005c1.196 -0.357 4.284 -1.209 6.521 -1.209 2.628 0 3.605 1.211 3.96 2.224 0.779 2.214 -0.846 4.577 -5.997 8.699 -6.421 5.148 -13.482 8.139 -18.638 10.324 -1.733 0.738 -3.775 1.602 -4.96 2.265 0.797 0.36 2.026 0.543 3.68 0.543 1.754 0 3.695 -0.203 5.57 -0.399 1.754 -0.18 3.412 -0.355 4.834 -0.355 1.134 0 4.15 0 5.23 2.409 1.144 2.546 -0.859 5.58 -4.212 9.355 -7.239 8.151 -16.532 11.469 -22.366 13.135 6.449 2.79 9.496 5.487 9.993 8.709 0.658 4.284 -3.42 7.401 -7.74 10.7 -3.433 2.623 -7.326 5.595 -7.689 8.563 -0.159 1.286 0.352 2.649 1.558 4.158 1.728 2.165 2.71 4.117 2.983 5.896h23.94v4.611h-25.146c-2.823 3.536 -9.699 4.194 -15.858 4.77 -2.643 0.247 -6.272 0.591 -7.064 1.116z"/><path d="m287.823 676.317 2.718 1.45 13.86 -20.211 3.045 -3.387c1.481 -1.651 4.431 -2.001 9.951 -2.517 4.459 -0.419 11.931 -1.124 12.87 -3.335 0.35 -0.823 -0.386 -2.499 -1.962 -4.474 -1.993 -2.494 -2.847 -5.055 -2.533 -7.604 0.599 -4.886 5.31 -8.486 9.468 -11.659h0.003c2.777 -2.124 6.223 -4.757 5.979 -6.336 -0.103 -0.666 -1.224 -3.111 -11.373 -6.794 -0.761 -0.275 -2.777 -1.003 -2.69 -3.009 0.09 -2.083 1.934 -2.571 4.989 -3.389 5.279 -1.409 15.112 -4.035 22.559 -12.415 1.882 -2.119 2.713 -3.376 3.078 -4.071a9.036 9.036 0 0 0 -0.648 -0.021c-1.183 0 -2.726 0.159 -4.356 0.329 -1.995 0.208 -4.058 0.424 -6.051 0.424 -2.893 0 -4.968 -0.468 -6.524 -1.466 -1.774 -1.144 -2.613 -2.481 -2.484 -3.97 0.234 -2.731 3.165 -3.973 8.488 -6.228 4.911 -2.08 11.633 -4.929 17.558 -9.676 1.281 -1.029 2.201 -1.839 2.857 -2.469 -1.425 0.27 -2.919 0.694 -3.52 0.887l-0.453 0.144 -11.281 -1.095c-1.381 -0.134 -4.613 -0.45 -5.359 -2.929 -0.797 -2.656 1.707 -4.69 5.858 -8.056l0.005 -0.005c3.806 -3.086 8.545 -6.93 11.199 -11.551 0.72 -1.252 1.17 -2.145 1.448 -2.772 -0.213 0.031 -0.429 0.067 -0.651 0.103 -1.196 0.195 -2.685 0.44 -4.217 0.44 -1.749 0 -3.24 -0.306 -4.569 -0.939 -4.487 -2.142 -4.047 -5.991 -3.811 -8.061l0.003 -0.033c0.059 -0.519 0.144 -1.273 0.077 -1.535 -0.026 0.008 -0.077 -0.008 -0.17 -0.033a5.48 5.48 0 0 0 -1.121 -0.201c-2.327 -0.188 -4.359 1.407 -6.351 2.975l-0.018 0.013c-1.851 1.458 -3.772 2.967 -6.04 2.967 -1.898 0 -3.587 -1.041 -5.027 -3.099a9.27 9.27 0 0 0 -1.363 -1.617c-0.55 1.106 -1.641 4.767 -1.484 16.367 0.136 9.849 -0.861 15.123 -3.335 17.627a5.426 5.426 0 0 1 -3.942 1.653c-2.281 0.003 -4.839 -1.229 -8.295 -3.986 -0.9 -0.717 -1.491 -1.041 -1.841 -1.191 -0.442 1.774 0.19 7.671 3.806 18.108 2.461 7.102 2.759 10.993 1.029 13.425 -1.054 1.481 -2.772 2.232 -5.104 2.232 -1.875 0 -4.06 -0.458 -6.143 -0.957 -1.265 -0.303 -2.199 -0.193 -2.201 -0.193 -0.566 1.034 0.941 6.663 2.268 11.631 0.558 2.088 1.175 4.392 1.803 6.904 1.589 6.364 1.661 9.476 0.273 11.487 -1.281 1.854 -3.356 2.096 -5.189 2.309 -1.813 0.213 -3.687 0.432 -5.678 1.893 -0.82 0.602 -1.278 1.389 -1.437 2.481 -0.674 4.528 3.916 11.823 5.739 14.256l0.843 1.121zm24.141 -32.112 -4.397 -1.394 31.554 -99.602 4.397 1.394zm-62.583 10.702 -4.611 27.311h2.62c3.268 -11.08 8.041 -27.71 8.272 -29.769l0.044 -0.409 0.185 -0.368c0.206 -0.404 5.102 -9.962 19.059 -16.997 6.398 -3.225 9.183 -7.766 8.555 -10.407 -0.455 -1.913 -2.885 -2.201 -4.292 -2.201a15.274 15.274 0 0 0 -3.104 0.36c-2.057 0.432 -3.875 0.651 -5.408 0.651 -4.536 0 -6.128 -1.929 -6.668 -3.554 -1.684 -5.084 5.976 -12.111 12.698 -17.113 1.828 -1.36 5.395 -4.017 7.545 -5.868l-1.553 -0.072c-1.203 -0.049 -2.571 -0.103 -4.071 -0.213 -3.374 -0.242 -4.744 -1.836 -5.297 -3.135 -1.962 -4.567 3.348 -11.546 11.065 -20.903 1.345 -1.633 2.579 -3.127 3.523 -4.361 0.244 -0.324 0.399 -0.573 0.499 -0.761 -0.381 -0.103 -1.072 -0.226 -2.242 -0.226 -3.631 0 -8.897 1.201 -10.671 2.008 -1.25 0.568 -2.597 0.298 -3.443 -0.648 -1.322 -1.481 -1.106 -3.909 -0.442 -9.746 0.643 -5.642 1.715 -15.079 -1.077 -17.563 -0.113 -0.1 -0.172 -0.123 -0.172 -0.123 -2.258 0.35 -7.326 11.764 -10.566 23.955l-0.116 0.329c-0.735 1.692 -3.235 4.559 -7.941 4.559 -2.564 0 -5.487 -0.859 -8.686 -2.553a7.653 7.653 0 0 0 -0.19 -0.098c1.029 3.51 5.156 11.085 7.545 15.465 1.659 3.042 3.225 5.914 4.289 8.144l0.005 0.01c1.929 4.037 2.391 5.001 1.535 6.354l-0.679 1.075 -1.414 0.067c-0.887 0 -1.589 -0.409 -2.865 -1.152 -2.451 -1.425 -7.017 -4.078 -14.153 -4.971a19.291 19.291 0 0 0 -1.98 -0.159c1.067 1.409 3.155 3.554 4.788 5.238 4.15 4.271 9.319 9.586 11.453 14.811 1.453 3.556 1.99 5.261 1.049 6.668 -0.491 0.725 -1.286 1.144 -2.183 1.144 -1.124 0 -2.075 -0.607 -3.803 -1.713l-0.044 -0.026c-2.826 -1.81 -7.606 -4.873 -13.068 -4.464 -0.18 0.01 -0.35 0.026 -0.504 0.041 1.368 1.165 3.677 2.744 5.369 3.901 4.474 3.063 9.103 6.228 10.795 9.445 2.245 4.269 3.291 7.182 1.99 9.468 -1.178 2.07 -3.734 2.533 -6.141 2.677 -0.558 1.841 1.365 8.877 4.217 15.256zm8.067 -13.577 -4.559 -0.692 11.057 -72.864 4.557 0.694z"/><path d="M255.235 671.775c0.406 -1.414 0.818 -2.854 1.221 -4.284H286.971l-2.073 4.284z"/></g></g><path d="M470.721 730.836v-253.101h5.097v253.101z" data-paper-data="{&amp;quot;isShapeTextSeparator&amp;quot;:true}" fill-rule="nonzero" fill="#fff"/></g></svg>