<?xml version="1.0" encoding="utf-8"?>
<svg viewBox="59.19 54.89 393.1 393.23" xmlns="http://www.w3.org/2000/svg">
  <defs/>
  <path fill="rgb(128, 128, 128)" d="M212.245 95.9701C214.303 89.0896 216.176 78.6495 217.483 71.5368C218.76 64.585 218.378 55.9058 227.333 55.034L265.912 55.02C272.537 55.0186 279.39 54.666 285.99 55.116C293.788 55.6477 293.609 63.4967 294.645 69.4746C296.036 77.5032 297.349 88.4549 299.937 95.9701C312.715 100.82 322.16 103.505 334.546 110.97C339.482 106.667 360.898 89.6476 365.73 87.7661C371.915 85.3581 377.558 93.3383 381.953 97.3647C393.037 107.518 408.577 121.282 418.382 132.638C423.952 139.091 418.619 143.36 414.377 148.382C409.471 154.189 398.943 165.874 395.911 172.084L395.724 172.472C402.234 184.822 406.906 195.015 410.979 208.6C418.688 209.618 440.621 211.868 447.28 214.305C453.679 216.647 452.056 223.204 452.033 228.602L452.019 268.861C452.026 273.066 452.934 281.106 451.395 284.975C448.402 292.499 419.701 290.449 410.979 294.392C406.753 300.706 405.132 308.782 402.133 315.722C400.131 320.354 397.467 324.673 395.724 329.419C399.308 337.469 420.457 358.063 421.436 363.436C422.343 368.409 418.299 371.122 415.132 374.143C407.17 381.736 398.918 388.99 390.994 396.633C385.516 401.917 380.739 408.106 375.037 413.12C367.76 419.519 360.873 410.845 355.228 406.546C348.369 401.323 341.386 396.271 334.546 391.022C321.887 398.339 313.279 401.352 299.937 406.211C297.947 414.22 296.577 422.427 295.01 430.529C293.685 437.382 294.17 445.511 286.358 447.939L246.26 447.936C239.666 447.936 231.652 448.496 225.259 447.672C217.165 446.628 217.852 432.942 216.947 426.994C215.891 420.054 214.566 413.157 213.553 406.211C200.817 402.909 189.19 396.513 177.333 391.022C169.997 394.513 149.715 413.764 144.541 414.839C138.975 415.996 135.492 411.14 132.129 407.687L101.202 376.909C89.2642 365.1 87.3875 366.694 99.1044 351.432C104.816 343.992 110.635 336.685 116.564 329.419C108.507 316.322 107.364 305.861 101.498 294.392C97.7707 293.191 93.491 292.766 89.6157 292.211L73.5256 289.94C66.6316 288.967 60.289 289.377 59.85 280.678C59.3757 271.281 59.8451 261.445 59.8435 252.004C59.8423 244.609 56.9205 218.2 63.456 214.711C71.2919 210.528 99.4454 211.116 102.607 205.071C104.762 200.95 106.026 195.441 107.955 190.981C110.182 185.832 115.204 177.147 116.564 172.472C113.4 165.116 92.271 144.066 91.519 139.683C90.3766 133.025 98.5345 127.713 102.718 123.666L120.347 106.581C126.046 100.994 132.172 93.8596 138.135 88.8222C144.482 83.4606 149.695 90.2296 154.853 93.9404L178.487 110.97C189.3 104.583 200.48 100.203 212.245 95.9701ZM248.19 135.965C242.642 136.636 237.091 137.287 231.637 138.534C173.323 151.869 135.428 207.156 142.67 266.367C149.11 319.014 192.364 359.817 244.61 365.123C250.768 365.749 256.92 365.731 263.103 365.702C295.61 362.853 323.323 349.617 344.673 324.202C408.648 248.044 347.944 131.737 248.19 135.965Z"/>
  <text style="fill: rgb(128, 128, 128); font-family: Arial, sans-serif; font-size: 160px; paint-order: stroke; stroke: rgb(128, 128, 128); stroke-width: 0px; white-space: pre;" x="102.984" y="430.082" dx="81.622" dy="-123.11">%</text>
</svg>