<svg xmlns:mydata="http://www.w3.org/2000/svg" mydata:contrastcolor="1a330e" mydata:template="Contrast" mydata:presentation="2.5" mydata:layouttype="undefined" mydata:specialfontid="undefined" mydata:id1="005" mydata:id2="230" mydata:companyname="RÚCULA" mydata:companytagline="" version="1.1" xmlns="http://www.w3.org/2000/svg" xmlns:xlink="http://www.w3.org/1999/xlink" viewBox="0 35 550 400"><defs><linearGradient x1="65" y1="235.00043" x2="485" y2="235.00043" gradientUnits="userSpaceOnUse" id="color-1311971067"><stop offset="0" stop-color="#56ab2f"></stop><stop offset="1" stop-color="#a8e063"></stop></linearGradient></defs><g fill="url(#color-1311971067)" fill-rule="none" stroke="none" stroke-width="1" stroke-linecap="butt" stroke-linejoin="miter" stroke-miterlimit="10" stroke-dasharray="" stroke-dashoffset="0" font-family="none" font-weight="none" font-size="none" text-anchor="none" style="mix-blend-mode: normal"><g data-paper-data="{&quot;isGlobalGroup&quot;:true,&quot;bounds&quot;:{&quot;x&quot;:65.00000000000003,&quot;y&quot;:185.78632756578125,&quot;width&quot;:420,&quot;height&quot;:98.42820707225857}}"><g data-paper-data="{&quot;isPrimaryText&quot;:true}" fill-rule="nonzero"><path d="M253.37972,235.18541c0,1.69246 -0.20918,3.20427 -0.62754,4.53542c-0.41836,1.33115 -0.9841,2.50542 -1.69722,3.5228c-0.71312,1.01738 -1.53558,1.88738 -2.46738,2.61001c-0.93181,0.72262 -1.9064,1.31689 -2.92378,1.78279c-1.01738,0.4659 -2.04427,0.80344 -3.08066,1.01263c-1.0364,0.20918 -2.01099,0.31377 -2.92378,0.31377l15.48889,13.37807h-11.46692l-15.46037,-13.37807h-5.33411v-7.41641h16.7725c0.93181,-0.07607 1.78279,-0.27098 2.55296,-0.58476c0.77017,-0.31377 1.43574,-0.73689 1.99673,-1.26935c0.56099,-0.53246 0.99361,-1.17427 1.29787,-1.92541c0.30426,-0.75115 0.45639,-1.61164 0.45639,-2.58148v-4.67804c0,-0.41836 -0.0523,-0.73689 -0.15689,-0.95558c-0.10459,-0.21869 -0.23771,-0.38033 -0.39935,-0.48492c-0.16164,-0.10459 -0.33279,-0.16639 -0.51344,-0.18541c-0.18066,-0.01902 -0.34705,-0.02852 -0.49918,-0.02852h-24.47416v33.48796h-7.41641v-37.16764c0,-0.51344 0.09508,-0.99836 0.28525,-1.45476c0.19016,-0.45639 0.45164,-0.85574 0.78443,-1.19804c0.33279,-0.3423 0.72738,-0.60853 1.18377,-0.79869c0.45639,-0.19016 0.95082,-0.28525 1.48328,-0.28525h28.15384c1.65443,0 3.05214,0.29951 4.19313,0.89853c1.14099,0.59902 2.06804,1.35017 2.78115,2.25345c0.71312,0.90328 1.22656,1.87787 1.54033,2.92378c0.31377,1.0459 0.47066,2.02525 0.47066,2.93804z" data-paper-data="{&quot;glyphName&quot;:&quot;R&quot;,&quot;glyphIndex&quot;:0,&quot;firstGlyphOfWord&quot;:true,&quot;word&quot;:1}" fill="#ffffff"></path><path d="M300.90182,258.60416c0,0.53246 -0.09508,1.02689 -0.28525,1.48328c-0.19016,0.45639 -0.45639,0.85099 -0.79869,1.18377c-0.3423,0.33279 -0.74164,0.59426 -1.19804,0.78443c-0.45639,0.19016 -0.94131,0.28525 -1.45476,0.28525h-16.71545c-1.57836,0 -3.17575,-0.17115 -4.79214,-0.51344c-1.6164,-0.3423 -3.1805,-0.87 -4.69231,-1.58312c-1.51181,-0.71312 -2.93329,-1.62115 -4.26444,-2.72411c-1.33115,-1.10295 -2.49591,-2.41033 -3.49427,-3.92214c-0.99836,-1.51181 -1.78279,-3.2423 -2.35328,-5.19149c-0.57049,-1.94919 -0.85574,-4.12181 -0.85574,-6.51789v-20.45218h7.41641v20.45218c0,2.09181 0.29,3.86034 0.87,5.30559c0.58,1.44525 1.31689,2.65279 2.21066,3.62263c0.89377,0.96984 1.87312,1.7305 2.93804,2.28197c1.06492,0.55148 2.07755,0.96033 3.03788,1.22656c0.96033,0.26623 1.80656,0.43262 2.5387,0.49918c0.73213,0.06656 1.2123,0.09984 1.4405,0.09984h13.03577v-33.48796h7.41641zM294.96869,214.5906l-14.88987,5.33411l-1.9682,-4.2787l13.72036,-7.98691z" data-paper-data="{&quot;glyphName&quot;:&quot;Ú&quot;,&quot;glyphIndex&quot;:1,&quot;word&quot;:1}" fill="#ffffff"></path><path d="M346.14193,262.34089h-26.75614c-0.68459,0 -1.42148,-0.08082 -2.21066,-0.24246c-0.78918,-0.16164 -1.56886,-0.41361 -2.33902,-0.7559c-0.77017,-0.3423 -1.50705,-0.78443 -2.21066,-1.3264c-0.70361,-0.54197 -1.3264,-1.19804 -1.86837,-1.9682c-0.54197,-0.77017 -0.97459,-1.66394 -1.29787,-2.68132c-0.32328,-1.01738 -0.48492,-2.16312 -0.48492,-3.43722v-20.08136c0,-0.68459 0.08082,-1.42148 0.24246,-2.21066c0.16164,-0.78918 0.41361,-1.56886 0.7559,-2.33902c0.3423,-0.77017 0.78918,-1.50705 1.34066,-2.21066c0.55148,-0.70361 1.2123,-1.3264 1.98246,-1.86837c0.77017,-0.54197 1.65918,-0.97459 2.66706,-1.29787c1.00787,-0.32328 2.14886,-0.48492 3.42296,-0.48492h26.75614v7.41641h-26.75614c-0.96984,0 -1.71148,0.25672 -2.22492,0.77017c-0.51344,0.51344 -0.77017,1.2741 -0.77017,2.28197v20.02431c0,0.95082 0.26148,1.68771 0.78443,2.21066c0.52295,0.52295 1.25984,0.78443 2.21066,0.78443h26.75614z" data-paper-data="{&quot;glyphName&quot;:&quot;C&quot;,&quot;glyphIndex&quot;:2,&quot;word&quot;:1}" fill="#ffffff"></path><path d="M393.23615,258.60416c0,0.53246 -0.09508,1.02689 -0.28525,1.48328c-0.19016,0.45639 -0.45639,0.85099 -0.79869,1.18377c-0.3423,0.33279 -0.74164,0.59426 -1.19804,0.78443c-0.45639,0.19016 -0.94131,0.28525 -1.45476,0.28525h-16.71545c-1.57836,0 -3.17575,-0.17115 -4.79214,-0.51344c-1.6164,-0.3423 -3.1805,-0.87 -4.69231,-1.58312c-1.51181,-0.71312 -2.93329,-1.62115 -4.26444,-2.72411c-1.33115,-1.10295 -2.49591,-2.41033 -3.49427,-3.92214c-0.99836,-1.51181 -1.78279,-3.2423 -2.35328,-5.19149c-0.57049,-1.94919 -0.85574,-4.12181 -0.85574,-6.51789v-20.45218h7.41641v20.45218c0,2.09181 0.29,3.86034 0.87,5.30559c0.58,1.44525 1.31689,2.65279 2.21066,3.62263c0.89377,0.96984 1.87312,1.7305 2.93804,2.28197c1.06492,0.55148 2.07755,0.96033 3.03788,1.22656c0.96033,0.26623 1.80656,0.43262 2.5387,0.49918c0.73213,0.06656 1.2123,0.09984 1.4405,0.09984h13.03577v-33.48796h7.41641z" data-paper-data="{&quot;glyphName&quot;:&quot;U&quot;,&quot;glyphIndex&quot;:3,&quot;word&quot;:1}" fill="#ffffff"></path><path d="M439.41759,262.34089h-33.83025c-0.53246,0 -1.02689,-0.09508 -1.48328,-0.28525c-0.45639,-0.19016 -0.85099,-0.45164 -1.18377,-0.78443c-0.33279,-0.33279 -0.59426,-0.72738 -0.78443,-1.18377c-0.19016,-0.45639 -0.28525,-0.95082 -0.28525,-1.48328v-37.16764h7.41641v33.48796h30.15057z" data-paper-data="{&quot;glyphName&quot;:&quot;L&quot;,&quot;glyphIndex&quot;:4,&quot;word&quot;:1}" fill="#ffffff"></path><path d="M485,262.34089h-7.41641v-10.04068h-26.07154v10.04068h-7.41641v-20.45218c0,-2.98558 0.51344,-5.73346 1.54033,-8.24363c1.02689,-2.51017 2.45312,-4.66854 4.2787,-6.4751c1.82558,-1.80656 3.98394,-3.21378 6.4751,-4.22165c2.49115,-1.00787 5.21051,-1.51181 8.15805,-1.51181h16.71545c0.51344,0 0.99836,0.09508 1.45476,0.28525c0.45639,0.19016 0.85574,0.45639 1.19804,0.79869c0.3423,0.3423 0.60853,0.74164 0.79869,1.19804c0.19016,0.45639 0.28525,0.94131 0.28525,1.45476zM451.51204,244.8838h26.07154v-16.03086h-13.03577c-0.2282,0 -0.70836,0.03328 -1.4405,0.09984c-0.73213,0.06656 -1.57836,0.23295 -2.5387,0.49918c-0.96033,0.26623 -1.97296,0.67508 -3.03788,1.22656c-1.06492,0.55148 -2.04427,1.31213 -2.93804,2.28197c-0.89377,0.96984 -1.63066,2.18214 -2.21066,3.63689c-0.58,1.45476 -0.87,3.21853 -0.87,5.29133z" data-paper-data="{&quot;glyphName&quot;:&quot;A&quot;,&quot;glyphIndex&quot;:5,&quot;lastGlyphOfWord&quot;:true,&quot;word&quot;:1}" fill="#ffffff"></path></g><g data-paper-data="{&quot;fillRule&quot;:&quot;nonzero&quot;,&quot;fillRuleOriginal&quot;:&quot;evenodd&quot;,&quot;isIcon&quot;:true,&quot;iconStyle&quot;:&quot;standalone&quot;,&quot;selectedEffects&quot;:{&quot;container&quot;:&quot;circle_simple_filledplus&quot;,&quot;transformation&quot;:&quot;rotate0;translate50&quot;,&quot;pattern&quot;:&quot;&quot;},&quot;bounds&quot;:{&quot;x&quot;:65.00000000000003,&quot;y&quot;:185.78632756578125,&quot;width&quot;:98.42720707015476,&quot;height&quot;:98.42820707225857},&quot;widthRatioIconToContainer&quot;:0.6219622188226361,&quot;heightRatioIconToContainer&quot;:0.6385273315308417,&quot;relativeBoundsIconToContainer&quot;:{&quot;top&quot;:0.006865941993231868,&quot;left&quot;:0.0016964764899830864},&quot;iconType&quot;:&quot;icon&quot;,&quot;rawIconId&quot;:&quot;1220285&quot;,&quot;combineTerms&quot;:&quot;Arugula&quot;,&quot;blockLetter&quot;:&quot;O&quot;,&quot;suitableAsStandaloneIcon&quot;:true}" fill-rule="evenodd"><g data-paper-data="{&quot;isPathIcon&quot;:true}"><path d="M163.40621,236.46143l0.012,-0.491l0.007,-0.492l0.002,-0.473v-0.011l-0.002,-0.491l-0.007,-0.492l-0.012,-0.491l-0.017,-0.492l-0.021,-0.491l-0.026,-0.491l-0.031,-0.492l-0.036,-0.49l-0.041,-0.491l-0.045,-0.49l-0.051,-0.489l-0.055,-0.489l-0.061,-0.489l-0.065,-0.488l-0.07,-0.487l-0.075,-0.487l-0.08,-0.485l-0.085,-0.485l-0.091,-0.484l-0.094,-0.484l-0.1,-0.482l-0.105,-0.481l-0.109,-0.48l-0.115,-0.479l-0.12,-0.477l-0.124,-0.477l-0.129,-0.475l-0.134,-0.474l-0.139,-0.472l-0.144,-0.471l-0.148,-0.469l-0.153,-0.468l-0.158,-0.466l-0.162,-0.465l-0.167,-0.463l-0.172,-0.461l-0.176,-0.459l-0.18,-0.458l-0.185,-0.455l-0.187,-0.447l-0.193,-0.452l-0.199,-0.45l-0.202,-0.448l-0.208,-0.447l-0.211,-0.444l-0.216,-0.442l-0.22,-0.44l-0.225,-0.438l-0.229,-0.436l-0.233,-0.433l-0.238,-0.431l-0.243,-0.429l-0.246,-0.426l-0.251,-0.423l-0.255,-0.421l-0.26,-0.419l-0.263,-0.416l-0.268,-0.413l-0.272,-0.41l-0.276,-0.407l-0.281,-0.405l-0.284,-0.402l-0.289,-0.399l-0.292,-0.396l-0.297,-0.393l-0.3,-0.39l-0.305,-0.387l-0.308,-0.383l-0.312,-0.381l-0.316,-0.377l-0.319,-0.375l-0.323,-0.37l-0.327,-0.368l-0.33,-0.365l-0.334,-0.361l-0.337,-0.358l-0.341,-0.354l-0.343,-0.35l-0.2,-0.201l-0.349,-0.346l-0.353,-0.343l-0.356,-0.339l-0.36,-0.336l-0.362,-0.332l-0.366,-0.329l-0.369,-0.325l-0.373,-0.322l-0.376,-0.318l-0.379,-0.314l-0.382,-0.31l-0.385,-0.307l-0.388,-0.302l-0.391,-0.299l-0.394,-0.295l-0.398,-0.29l-0.4,-0.287l-0.403,-0.283l-0.406,-0.278l-0.409,-0.274l-0.412,-0.271l-0.414,-0.266l-0.417,-0.261l-0.419,-0.258l-0.423,-0.253l-0.424,-0.249l-0.427,-0.245l-0.43,-0.24l-0.432,-0.236l-0.434,-0.231l-0.437,-0.227l-0.439,-0.223l-0.441,-0.218l-0.443,-0.214l-0.445,-0.21l-0.447,-0.205l-0.449,-0.2l-0.449,-0.196l-0.262,-0.111l-0.453,-0.19l-0.456,-0.184l-0.458,-0.181l-0.46,-0.176l-0.461,-0.171l-0.463,-0.167l-0.464,-0.162l-0.467,-0.158l-0.468,-0.153l-0.469,-0.148l-0.471,-0.143l-0.473,-0.139l-0.473,-0.134l-0.476,-0.129l-0.476,-0.124l-0.478,-0.119l-0.479,-0.114l-0.48,-0.11l-0.481,-0.104l-0.482,-0.1l-0.483,-0.095l-0.484,-0.089l-0.485,-0.085l-0.486,-0.08l-0.487,-0.075l-0.487,-0.07l-0.488,-0.065l-0.488,-0.06l-0.489,-0.056l-0.49,-0.05l-0.49,-0.045l-0.49,-0.041l-0.491,-0.036l-0.491,-0.03l-0.491,-0.026l-0.492,-0.022l-0.491,-0.016l-0.492,-0.012l-0.491,-0.006l-0.484,-0.003l-0.491,0.003l-0.492,0.007l-0.492,0.012l-0.491,0.016l-0.492,0.022l-0.491,0.026l-0.491,0.031l-0.491,0.036l-0.49,0.04l-0.49,0.046l-0.49,0.05l-0.489,0.056l-0.488,0.06l-0.488,0.066l-0.487,0.07l-0.487,0.075l-0.486,0.08l-0.485,0.085l-0.484,0.09l-0.483,0.095l-0.482,0.1l-0.481,0.105l-0.48,0.109l-0.479,0.115l-0.478,0.119l-0.476,0.125l-0.475,0.129l-0.474,0.134l-0.472,0.138l-0.4711,0.144l-0.4693,0.148l-0.4679,0.153l-0.4662,0.158l-0.4645,0.162l-0.4629,0.167l-0.4612,0.172l-0.4594,0.176l-0.4575,0.181l-0.4557,0.185l-0.4467,0.186l-0.452,0.194l-0.4502,0.198l-0.4482,0.203l-0.4463,0.207l-0.4442,0.212l-0.4422,0.215l-0.4401,0.221l-0.4378,0.224l-0.4356,0.23l-0.4333,0.233l-0.431,0.238l-0.4286,0.242l-0.4261,0.247l-0.4236,0.251l-0.4211,0.255l-0.4184,0.259l-0.4158,0.264l-0.413,0.268l-0.4104,0.272l-0.4075,0.276l-0.4047,0.28l-0.4019,0.285l-0.3989,0.288l-0.3959,0.293l-0.3929,0.296l-0.3899,0.301l-0.3869,0.304l-0.3837,0.308l-0.3806,0.312l-0.3774,0.316l-0.3742,0.32l-0.371,0.323l-0.3677,0.326l-0.3645,0.331l-0.3612,0.334l-0.3579,0.337l-0.3545,0.341l-0.3495,0.342l-0.2015,0.201l-0.3459,0.349l-0.3427,0.353l-0.3392,0.356l-0.3358,0.359l-0.3324,0.363l-0.3288,0.366l-0.3251,0.369l-0.3216,0.373l-0.3178,0.375l-0.3141,0.379l-0.3103,0.382l-0.3065,0.385l-0.3026,0.389l-0.2987,0.391l-0.2948,0.394l-0.2907,0.397l-0.2867,0.401l-0.2826,0.403l-0.2785,0.406l-0.2744,0.409l-0.2702,0.411l-0.2659,0.415l-0.2618,0.417l-0.2575,0.419l-0.2532,0.422l-0.2489,0.425l-0.2446,0.427l-0.2402,0.43l-0.2359,0.432l-0.2315,0.434l-0.2271,0.437l-0.2227,0.439l-0.2183,0.441l-0.2139,0.443l-0.2095,0.445l-0.2051,0.447l-0.2006,0.449l-0.1953,0.449l-0.1115,0.261l-0.1893,0.454l-0.185,0.456l-0.1804,0.458l-0.176,0.459l-0.1714,0.462l-0.1668,0.463l-0.1622,0.464l-0.1575,0.467l-0.1529,0.467l-0.1481,0.47l-0.1434,0.471l-0.1386,0.472l-0.1338,0.474l-0.1289,0.475l-0.1242,0.477l-0.1192,0.477l-0.1144,0.479l-0.1095,0.48l-0.1046,0.482l-0.0996,0.482l-0.0947,0.483l-0.0898,0.484l-0.0849,0.485l-0.0798,0.486l-0.075,0.486l-0.07,0.488l-0.0651,0.488l-0.0601,0.488l-0.0553,0.489l-0.0503,0.49l-0.0454,0.49l-0.0405,0.49l-0.0357,0.491l-0.0308,0.491l-0.026,0.491l-0.0211,0.491l-0.0164,0.492l-0.0117,0.491l-0.0069,0.492l-0.0022,0.484l0.0024,0.491l0.0071,0.492l0.0118,0.491l0.0166,0.492l0.0214,0.491l0.0261,0.491l0.0311,0.492l0.0358,0.49l0.0407,0.491l0.0456,0.49l0.0506,0.489l0.0554,0.489l0.0603,0.489l0.0653,0.488l0.0702,0.487l0.0752,0.487l0.08,0.485l0.0851,0.485l0.09,0.485l0.0949,0.483l0.0998,0.482l0.1048,0.481l0.1097,0.48l0.1145,0.479l0.1195,0.477l0.1243,0.477l0.1292,0.475l0.134,0.474l0.1388,0.472l0.1435,0.471l0.1484,0.469l0.153,0.468l0.1577,0.466l0.1624,0.465l0.1669,0.463l0.1716,0.461l0.1761,0.459l0.1807,0.458l0.185,0.455l0.1864,0.447l0.1938,0.452l0.1983,0.45l0.2026,0.448l0.2071,0.447l0.2115,0.444l0.2159,0.442l0.2203,0.44l0.2248,0.438l0.229,0.436l0.2335,0.433l0.2379,0.431l0.2422,0.428l0.2465,0.427l0.2509,0.423l0.2551,0.421l0.2595,0.419l0.2636,0.416l0.2679,0.412l0.2721,0.411l0.2762,0.407l0.2803,0.405l0.2845,0.402l0.2885,0.399l0.2926,0.396l0.2964,0.393l0.3005,0.39l0.3043,0.386l0.3082,0.384l0.3121,0.381l0.3157,0.377l0.3195,0.374l0.3232,0.371l0.3268,0.368l0.3303,0.365l0.3339,0.361l0.3373,0.358l0.3408,0.354l0.3424,0.35l0.2004,0.201l0.3494,0.346l0.3527,0.343l0.3561,0.339l0.3594,0.336l0.3627,0.332l0.366,0.329l0.3692,0.325l0.3725,0.322l0.3757,0.318l0.3788,0.314l0.3821,0.31l0.3851,0.306l0.3882,0.303l0.3913,0.299l0.3943,0.294l0.3973,0.291l0.4003,0.287l0.4031,0.282l0.406,0.279l0.4088,0.274l0.4116,0.271l0.4143,0.265l0.4169,0.262l0.4197,0.258l0.4221,0.253l0.4248,0.249l0.4272,0.245l0.4296,0.24l0.432,0.236l0.4343,0.231l0.4366,0.227l0.4388,0.223l0.441,0.218l0.4431,0.214l0.4451,0.21l0.4471,0.205l0.4491,0.201l0.4487,0.195l0.2617,0.111l0.4539,0.19l0.4559,0.184l0.4577,0.181l0.4595,0.176l0.4613,0.171l0.463,0.167l0.4646,0.162l0.4663,0.158l0.468,0.153l0.4694,0.148l0.4714,0.143l0.472,0.139l0.474,0.134l0.475,0.128l0.476,0.125l0.478,0.119l0.479,0.114l0.48,0.11l0.481,0.104l0.482,0.1l0.484,0.095l0.484,0.09l0.485,0.084l0.485,0.08l0.487,0.075l0.487,0.07l0.488,0.065l0.489,0.06l0.489,0.056l0.489,0.05l0.49,0.046l0.491,0.04l0.49,0.036l0.491,0.03l0.492,0.026l0.491,0.022l0.491,0.016l0.492,0.012l0.492,0.007l0.483,0.002l0.492,-0.003l0.492,-0.007l0.491,-0.012l0.492,-0.016l0.491,-0.022l0.492,-0.026l0.49,-0.031l0.491,-0.036l0.49,-0.04l0.49,-0.046l0.49,-0.05l0.489,-0.056l0.489,-0.06l0.488,-0.065l0.487,-0.071l0.487,-0.075l0.485,-0.08l0.485,-0.085l0.484,-0.09l0.483,-0.095l0.482,-0.1l0.482,-0.104l0.48,-0.11l0.479,-0.115l0.477,-0.119l0.477,-0.125l0.475,-0.129l0.473,-0.134l0.473,-0.138l0.471,-0.144l0.469,-0.148l0.468,-0.153l0.466,-0.158l0.465,-0.162l0.462,-0.167l0.462,-0.172l0.459,-0.176l0.458,-0.181l0.455,-0.185l0.447,-0.186l0.452,-0.194l0.45,-0.198l0.448,-0.203l0.447,-0.207l0.444,-0.212l0.442,-0.215l0.44,-0.221l0.438,-0.224l0.435,-0.23l0.434,-0.233l0.431,-0.238l0.428,-0.242l0.426,-0.247l0.424,-0.251l0.421,-0.255l0.418,-0.259l0.416,-0.264l0.413,-0.268l0.411,-0.272l0.407,-0.276l0.405,-0.28l0.402,-0.285l0.399,-0.288l0.395,-0.293l0.393,-0.296l0.39,-0.301l0.387,-0.304l0.384,-0.309l0.38,-0.311l0.378,-0.316l0.374,-0.32l0.371,-0.323l0.368,-0.327l0.364,-0.33l0.362,-0.334l0.357,-0.337l0.355,-0.341l0.349,-0.342l0.202,-0.201l0.346,-0.349l0.343,-0.353l0.339,-0.356l0.336,-0.359l0.332,-0.363l0.329,-0.366l0.325,-0.369l0.321,-0.373l0.318,-0.376l0.314,-0.378l0.311,-0.382l0.306,-0.385l0.303,-0.389l0.299,-0.391l0.294,-0.394l0.291,-0.398l0.287,-0.4l0.282,-0.403l0.279,-0.406l0.274,-0.409l0.27,-0.411l0.266,-0.415l0.262,-0.417l0.258,-0.419l0.253,-0.423l0.249,-0.424l0.244,-0.427l0.24,-0.43l0.236,-0.432l0.232,-0.434l0.227,-0.437l0.223,-0.439l0.218,-0.441l0.214,-0.443l0.209,-0.445l0.205,-0.447l0.201,-0.449l0.195,-0.449l0.112,-0.262l0.189,-0.453l0.185,-0.456l0.18,-0.458l0.176,-0.46l0.172,-0.461l0.167,-0.463l0.162,-0.464l0.157,-0.467l0.153,-0.468l0.148,-0.469l0.144,-0.471l0.138,-0.472l0.134,-0.474l0.129,-0.475l0.124,-0.477l0.119,-0.478l0.115,-0.478l0.109,-0.481l0.105,-0.481l0.1,-0.482l0.094,-0.483l0.09,-0.484l0.085,-0.485l0.08,-0.486l0.075,-0.487l0.07,-0.487l0.065,-0.488l0.06,-0.488l0.055,-0.489l0.05,-0.49l0.046,-0.49l0.041,-0.49l0.035,-0.491l0.031,-0.491l0.026,-0.491l0.021,-0.491zM161.1092,234.06743l0.007,0.469l0.002,0.459v0.011l-0.002,0.461l-0.007,0.47l-0.011,0.469l-0.016,0.47l-0.02,0.468l-0.025,0.469l-0.029,0.468l-0.034,0.468l-0.039,0.468l-0.043,0.467l-0.049,0.466l-0.052,0.466l-0.058,0.466l-0.062,0.465l-0.067,0.464l-0.071,0.463l-0.076,0.463l-0.081,0.462l-0.086,0.461l-0.09,0.46l-0.095,0.459l-0.1,0.458l-0.104,0.457l-0.109,0.456l-0.114,0.455l-0.118,0.453l-0.123,0.453l-0.128,0.451l-0.132,0.45l-0.136,0.448l-0.142,0.447l-0.145,0.446l-0.151,0.444l-0.154,0.443l-0.159,0.442l-0.164,0.439l-0.168,0.438l-0.172,0.437l-0.176,0.434l-0.181,0.434l-0.105,0.245l-0.188,0.432l-0.192,0.429l-0.195,0.426l-0.2,0.425l-0.204,0.422l-0.208,0.421l-0.213,0.418l-0.216,0.416l-0.221,0.414l-0.225,0.411l-0.229,0.41l-0.233,0.406l-0.237,0.405l-0.241,0.402l-0.246,0.399l-0.249,0.398l-0.254,0.394l-0.257,0.392l-0.261,0.389l-0.266,0.387l-0.269,0.384l-0.273,0.381l-0.277,0.378l-0.281,0.376l-0.284,0.372l-0.289,0.37l-0.292,0.367l-0.296,0.364l-0.299,0.361l-0.303,0.358l-0.307,0.355l-0.31,0.352l-0.314,0.349l-0.317,0.346l-0.32,0.343l-0.324,0.339l-0.327,0.337l-0.331,0.334l-0.189,0.187l-0.337,0.331l-0.338,0.325l-0.342,0.322l-0.345,0.318l-0.348,0.316l-0.35,0.311l-0.354,0.308l-0.357,0.305l-0.36,0.301l-0.363,0.297l-0.366,0.293l-0.368,0.29l-0.372,0.286l-0.374,0.283l-0.377,0.278l-0.38,0.275l-0.383,0.271l-0.385,0.267l-0.389,0.263l-0.39,0.259l-0.394,0.255l-0.396,0.251l-0.398,0.247l-0.402,0.243l-0.403,0.238l-0.406,0.235l-0.408,0.231l-0.411,0.226l-0.413,0.223l-0.415,0.218l-0.417,0.214l-0.42,0.21l-0.421,0.206l-0.424,0.201l-0.425,0.198l-0.428,0.193l-0.43,0.189l-0.431,0.185l-0.426,0.178l-0.435,0.176l-0.436,0.172l-0.439,0.168l-0.439,0.163l-0.442,0.16l-0.442,0.154l-0.445,0.15l-0.446,0.146l-0.447,0.141l-0.448,0.137l-0.45,0.132l-0.451,0.128l-0.453,0.122l-0.454,0.119l-0.454,0.113l-0.456,0.109l-0.457,0.105l-0.458,0.099l-0.459,0.095l-0.461,0.09l-0.461,0.086l-0.461,0.081l-0.463,0.076l-0.463,0.071l-0.464,0.067l-0.465,0.062l-0.466,0.058l-0.466,0.052l-0.466,0.048l-0.467,0.044l-0.468,0.038l-0.468,0.035l-0.468,0.029l-0.468,0.025l-0.469,0.02l-0.469,0.016l-0.47,0.011l-0.469,0.007l-0.47,0.002l-0.462,-0.002l-0.469,-0.007l-0.47,-0.011l-0.469,-0.016l-0.469,-0.02l-0.468,-0.025l-0.469,-0.03l-0.468,-0.034l-0.467,-0.039l-0.467,-0.043l-0.467,-0.048l-0.466,-0.053l-0.465,-0.057l-0.465,-0.062l-0.464,-0.067l-0.464,-0.072l-0.462,-0.076l-0.462,-0.081l-0.461,-0.085l-0.46,-0.091l-0.459,-0.095l-0.458,-0.099l-0.457,-0.105l-0.456,-0.109l-0.455,-0.113l-0.454,-0.119l-0.452,-0.122l-0.451,-0.128l-0.45,-0.132l-0.449,-0.137l-0.4468,-0.141l-0.4457,-0.146l-0.4443,-0.15l-0.4428,-0.155l-0.4412,-0.159l-0.4397,-0.163l-0.4381,-0.168l-0.4364,-0.172l-0.4348,-0.177l-0.4332,-0.181l-0.2453,-0.104l-0.4325,-0.189l-0.4285,-0.191l-0.4264,-0.196l-0.4246,-0.2l-0.4224,-0.204l-0.4204,-0.208l-0.4182,-0.212l-0.4161,-0.217l-0.4138,-0.221l-0.4116,-0.225l-0.4092,-0.229l-0.4069,-0.233l-0.4045,-0.237l-0.402,-0.241l-0.3996,-0.246l-0.397,-0.249l-0.3945,-0.253l-0.3919,-0.258l-0.3892,-0.261l-0.3865,-0.265l-0.3839,-0.27l-0.3811,-0.273l-0.3783,-0.277l-0.3755,-0.281l-0.3726,-0.284l-0.3698,-0.289l-0.3669,-0.292l-0.364,-0.295l-0.361,-0.3l-0.358,-0.303l-0.3551,-0.307l-0.352,-0.31l-0.3489,-0.313l-0.346,-0.317l-0.3428,-0.321l-0.3397,-0.324l-0.3367,-0.327l-0.3335,-0.33l-0.1881,-0.189l-0.3302,-0.338l-0.3252,-0.338l-0.3219,-0.342l-0.3185,-0.345l-0.3151,-0.347l-0.3116,-0.351l-0.3081,-0.354l-0.3045,-0.357l-0.3009,-0.36l-0.2973,-0.363l-0.2936,-0.365l-0.2899,-0.369l-0.2862,-0.371l-0.2823,-0.375l-0.2786,-0.377l-0.2747,-0.38l-0.2708,-0.383l-0.2669,-0.385l-0.2629,-0.388l-0.259,-0.391l-0.255,-0.394l-0.251,-0.396l-0.247,-0.398l-0.2428,-0.401l-0.2388,-0.404l-0.2348,-0.405l-0.2306,-0.409l-0.2265,-0.41l-0.2223,-0.413l-0.2182,-0.416l-0.2141,-0.417l-0.2099,-0.419l-0.2057,-0.422l-0.2015,-0.424l-0.1974,-0.425l-0.1933,-0.428l-0.189,-0.429l-0.1849,-0.432l-0.1777,-0.426l-0.1765,-0.435l-0.1722,-0.436l-0.1679,-0.438l-0.1635,-0.44l-0.1591,-0.441l-0.1546,-0.443l-0.1502,-0.445l-0.1457,-0.445l-0.1411,-0.447l-0.1367,-0.449l-0.1321,-0.45l-0.1275,-0.451l-0.1229,-0.453l-0.1182,-0.453l-0.1136,-0.455l-0.109,-0.456l-0.1043,-0.457l-0.0997,-0.458l-0.0949,-0.459l-0.0903,-0.46l-0.0855,-0.461l-0.0809,-0.462l-0.0761,-0.463l-0.0715,-0.463l-0.0667,-0.464l-0.0621,-0.465l-0.0574,-0.465l-0.0527,-0.466l-0.048,-0.467l-0.0433,-0.467l-0.0388,-0.468l-0.034,-0.467l-0.0295,-0.469l-0.0249,-0.468l-0.0202,-0.469l-0.0158,-0.469l-0.0112,-0.47l-0.0066,-0.469l-0.0022,-0.47l0.0022,-0.461l0.0067,-0.47l0.0113,-0.469l0.0157,-0.47l0.0203,-0.468l0.0249,-0.469l0.0295,-0.468l0.0341,-0.468l0.0388,-0.468l0.0434,-0.467l0.048,-0.467l0.0528,-0.466l0.0574,-0.465l0.0621,-0.465l0.0668,-0.464l0.0715,-0.463l0.0762,-0.463l0.0809,-0.462l0.0856,-0.461l0.0904,-0.46l0.0949,-0.459l0.0997,-0.458l0.1044,-0.457l0.109,-0.456l0.1136,-0.455l0.1183,-0.453l0.123,-0.453l0.1275,-0.451l0.1321,-0.45l0.1367,-0.448l0.1412,-0.447l0.1457,-0.446l0.1502,-0.444l0.1547,-0.443l0.1591,-0.441l0.1635,-0.44l0.1679,-0.438l0.1722,-0.437l0.1764,-0.435l0.1808,-0.433l0.1046,-0.245l0.1883,-0.432l0.1916,-0.429l0.1957,-0.426l0.1999,-0.425l0.2041,-0.422l0.2082,-0.421l0.2125,-0.418l0.2165,-0.416l0.2207,-0.414l0.2248,-0.411l0.229,-0.41l0.2331,-0.407l0.2372,-0.404l0.2412,-0.402l0.2454,-0.4l0.2493,-0.397l0.2534,-0.394l0.2574,-0.392l0.2614,-0.389l0.2653,-0.387l0.2692,-0.384l0.2731,-0.381l0.277,-0.378l0.2808,-0.376l0.2846,-0.372l0.2884,-0.37l0.2921,-0.367l0.2958,-0.364l0.2994,-0.361l0.3031,-0.358l0.3066,-0.355l0.3102,-0.352l0.3136,-0.349l0.3171,-0.346l0.3205,-0.343l0.3238,-0.339l0.3272,-0.337l0.3304,-0.334l0.1892,-0.188l0.3371,-0.33l0.3385,-0.325l0.3417,-0.322l0.3447,-0.318l0.3478,-0.316l0.3508,-0.311l0.3538,-0.308l0.3569,-0.305l0.3599,-0.301l0.3628,-0.297l0.3657,-0.294l0.3687,-0.289l0.3715,-0.287l0.3744,-0.282l0.3772,-0.278l0.38,-0.275l0.3827,-0.271l0.3855,-0.267l0.3882,-0.263l0.3908,-0.259l0.3934,-0.255l0.396,-0.251l0.3986,-0.247l0.401,-0.243l0.4035,-0.238l0.4059,-0.235l0.4083,-0.231l0.4106,-0.226l0.4129,-0.223l0.4151,-0.218l0.4173,-0.214l0.4195,-0.21l0.4216,-0.206l0.4237,-0.201l0.4256,-0.197l0.4276,-0.194l0.4296,-0.189l0.4314,-0.185l0.4262,-0.177l0.4349,-0.177l0.4365,-0.172l0.4382,-0.168l0.4397,-0.163l0.4413,-0.16l0.4428,-0.154l0.4444,-0.15l0.4457,-0.146l0.4469,-0.141l0.449,-0.137l0.45,-0.132l0.451,-0.127l0.452,-0.123l0.454,-0.119l0.455,-0.113l0.456,-0.109l0.457,-0.105l0.458,-0.099l0.459,-0.095l0.46,-0.09l0.461,-0.086l0.462,-0.081l0.462,-0.076l0.464,-0.071l0.464,-0.067l0.465,-0.062l0.465,-0.058l0.466,-0.052l0.467,-0.048l0.467,-0.044l0.467,-0.038l0.468,-0.034l0.468,-0.03l0.469,-0.025l0.469,-0.02l0.469,-0.016l0.469,-0.011l0.47,-0.007l0.469,-0.002l0.462,0.002l0.47,0.007l0.469,0.011l0.469,0.016l0.469,0.02l0.469,0.025l0.468,0.03l0.468,0.034l0.468,0.039l0.467,0.043l0.466,0.048l0.466,0.053l0.466,0.057l0.465,0.062l0.464,0.067l0.463,0.072l0.463,0.076l0.461,0.081l0.461,0.085l0.461,0.091l0.459,0.095l0.458,0.099l0.457,0.105l0.455,0.109l0.455,0.113l0.454,0.119l0.452,0.123l0.452,0.127l0.45,0.132l0.448,0.137l0.447,0.141l0.446,0.146l0.444,0.15l0.443,0.155l0.441,0.159l0.44,0.163l0.438,0.168l0.436,0.172l0.435,0.177l0.433,0.181l0.245,0.104l0.433,0.189l0.429,0.191l0.426,0.196l0.425,0.2l0.422,0.204l0.42,0.208l0.419,0.213l0.416,0.216l0.413,0.221l0.412,0.225l0.409,0.229l0.407,0.233l0.405,0.237l0.402,0.241l0.399,0.245l0.397,0.25l0.395,0.253l0.392,0.258l0.389,0.261l0.387,0.265l0.383,0.27l0.381,0.273l0.379,0.277l0.375,0.28l0.373,0.285l0.37,0.288l0.367,0.293l0.364,0.295l0.361,0.3l0.358,0.303l0.355,0.306l0.352,0.311l0.349,0.313l0.346,0.317l0.342,0.321l0.34,0.324l0.337,0.327l0.333,0.33l0.188,0.189l0.331,0.337l0.325,0.339l0.322,0.342l0.318,0.344l0.315,0.348l0.312,0.351l0.308,0.354l0.304,0.357l0.301,0.36l0.298,0.362l0.293,0.366l0.29,0.369l0.286,0.371l0.283,0.375l0.278,0.377l0.275,0.38l0.271,0.383l0.267,0.385l0.262,0.388l0.26,0.391l0.254,0.394l0.252,0.396l0.246,0.398l0.243,0.401l0.239,0.404l0.235,0.406l0.23,0.408l0.227,0.41l0.222,0.413l0.218,0.415l0.214,0.418l0.211,0.419l0.205,0.422l0.202,0.424l0.197,0.425l0.193,0.428l0.189,0.429l0.185,0.432l0.178,0.426l0.177,0.435l0.172,0.436l0.168,0.438l0.163,0.44l0.159,0.441l0.155,0.443l0.15,0.445l0.146,0.445l0.141,0.448l0.136,0.448l0.133,0.45l0.127,0.451l0.123,0.453l0.118,0.453l0.114,0.455l0.109,0.456l0.104,0.457l0.1,0.458l0.095,0.459l0.09,0.46l0.086,0.461l0.08,0.462l0.077,0.463l0.071,0.463l0.067,0.464l0.062,0.465l0.057,0.465l0.053,0.466l0.048,0.467l0.043,0.467l0.039,0.468l0.034,0.467l0.029,0.469l0.025,0.468l0.021,0.469l0.015,0.469z" fill="#ffffff"></path><path d="M114.2141,191.27034c-24.15175,0 -43.73039,19.57904 -43.73039,43.73009c0,24.15105 19.57864,43.73009 43.73039,43.73009c24.15105,0 43.73009,-19.57904 43.73009,-43.73009c0,-24.15105 -19.57904,-43.73009 -43.73009,-43.73009zM120.85312,255.63847l-1.1,1.231l-0.628,0.918h25.56205v1.793h-26.79006l-1.141,1.665h21.83305v1.793h-23.06005l-1.969,2.87601l-3.99301,-2.132l0.359,-0.744h-11.18622c-0.49,1.689 -0.8902,3.04101 -1.0021,3.42001l-0.1901,0.642h-4.48131l0.6858,-4.06101h-6.81131v-1.793h7.11401l0.2812,-1.666h-10.56442v-1.793h10.86712l0.4857,-2.86501c-0.1887,-0.431 -0.414,-0.975 -0.6385,-1.571h-6.34851v-1.794h5.74951c-0.4526,-1.581 -0.6843,-3.19101 -0.1499,-4.06601c0.2848,-0.465 0.7482,-0.738 1.3063,-0.767c0.6528,-0.035 0.9139,-0.118 1.0072,-0.161c-0.0015,-0.171 -0.1098,-0.648 -0.7913,-1.943c-0.4512,-0.857 -2.2101,-2.06 -3.62331,-3.02701c-2.1356,-1.461 -3.54661,-2.42701 -3.22591,-3.61801c0.2804,-1.042 1.6355,-1.141 2.2137,-1.185c2.175,-0.157 4.02651,0.712 5.32991,1.484c-0.7941,-1.618 -2.51571,-3.38901 -3.91811,-4.83201c-1.8666,-1.92 -2.99281,-3.08001 -2.52581,-4.18601c0.3787,-0.896 1.4928,-0.896 1.8586,-0.896c0.3092,0 0.6636,0.025 1.0832,0.078c1.9856,0.247 3.53871,0.817 4.66141,1.348c-0.3645,-0.711 -0.8193,-1.546 -1.2941,-2.41601c-2.63771,-4.83901 -3.72171,-7.08101 -3.03301,-8.24102c0.2374,-0.399 0.6571,-0.628 1.1528,-0.628c0.4003,0 0.8558,0.143 1.434,0.449c0.9835,0.521 1.8378,0.785 2.54011,0.785c0.9605,0 1.3372,-0.515 1.4232,-0.659c0.8681,-3.24801 3.12411,-10.55502 5.84011,-10.55502c0.442,0 0.869,0.172 1.236,0.498c1.781,1.583 1.354,5.34501 1.01,8.36802v0.003c-0.073,0.64 -0.156,1.379 -0.186,1.912c1.089,-0.326 2.73201,-0.645 4.06501,-0.645c0.508,0 2.051,0 2.57801,1.064c0.314,0.634 0.154,1.374 -0.474,2.199c-0.378,0.496 -0.873,1.095 -1.412,1.75l-0.002,0.002v0.001c-1.112,1.348 -4.48301,5.43701 -4.03801,6.28101c0,0 0.11,0.104 0.539,0.135c0.564,0.04 1.078,0.062 1.53,0.08c1.629,0.069 2.61101,0.109 2.89301,1.026c0.312,1.01 -0.522,1.757 -4.22701,4.51501c-3.85601,2.86901 -4.37801,4.39901 -4.30601,4.65301c0.03,0.026 0.282,0.151 0.89,0.151c0.472,0 1.055,-0.072 1.734,-0.215c2.62901,-0.551 4.56701,0.281 4.99001,2.058c0.488,2.058 -1.265,4.55001 -4.26501,6.06101c-4.40401,2.222 -6.22001,5.11401 -6.55601,5.70401c-0.113,0.61 -0.482,2.013 -0.939,3.66501h12.23203l2.149,-4.43901h-8.57502v-1.794h9.44302l0.02,-0.042c-0.786,-1.146 -2.59801,-4.09001 -2.25,-6.43201c0.132,-0.892 0.572,-1.635 1.273,-2.149c1.155,-0.846 2.255,-0.975 3.05901,-1.069c0.267,-0.032 0.67,-0.079 0.759,-0.146c0.04,-0.06 0.241,-0.524 -0.378,-3.00401c-0.242,-0.968 -0.479,-1.854 -0.693,-2.65701c-0.871,-3.25501 -1.35,-5.04801 -0.536,-6.10901c0.242,-0.316 0.714,-0.693 1.577,-0.693c0.317,0 0.67,0.048 1.081,0.147c0.67,0.16 1.428,0.323 1.972,0.323c0.273,0 0.474,-0.044 0.524,-0.115c0.069,-0.096 0.362,-0.724 -0.633,-3.59401c-1.621,-4.68201 -2.02,-7.65002 -1.188,-8.82102c0.298,-0.418 0.745,-0.648 1.258,-0.648c0.58,0 1.209,0.286 1.979,0.901c1.264,1.008 1.863,1.158 2.108,1.158c0.109,0 0.176,-0.028 0.255,-0.108c0.316,-0.321 0.837,-1.47 0.781,-5.57201c-0.079,-5.76801 0.601,-7.20602 1.201,-7.81502c0.305,-0.309 0.679,-0.472 1.083,-0.472c0.929,0 1.635,0.856 2.086,1.498c0.19,0.272 0.376,0.44 0.485,0.44c0.261,0 0.804,-0.427 1.241,-0.77c0.942,-0.742 2.156,-1.681 3.74101,-1.539c0.817,0.072 1.389,0.321 1.749,0.762c0.499,0.61 0.415,1.341 0.348,1.929c-0.098,0.849 -0.067,1.056 0.472,1.312c0.269,0.129 0.598,0.191 1.004,0.191c0.451,0 0.93,-0.078 1.353,-0.147c0.38,-0.062 0.738,-0.12 1.057,-0.12c0.752,0 1.113,0.349 1.283,0.642c0.427,0.739 0.027,1.725 -0.807,3.17901c-1.198,2.086 -3.26901,3.76601 -4.78101,4.99201c-0.435,0.353 -0.937,0.76 -1.284,1.082c0.042,0.005 0.086,0.01 0.133,0.014l4.02501,0.391c0.465,-0.139 1.666,-0.47 2.53601,-0.47c1.022,0 1.402,0.471 1.54,0.865c0.303,0.861 -0.329,1.779 -2.332,3.38301c-2.49701,2.002 -5.24301,3.16501 -7.24802,4.01501c-0.674,0.287 -1.468,0.623 -1.929,0.881c0.309,0.14 0.788,0.211 1.431,0.211c0.682,0 1.437,-0.079 2.166,-0.155c0.682,-0.071 1.327,-0.138 1.88,-0.138c0.441,0 1.614,0 2.034,0.937c0.445,0.989 -0.334,2.17 -1.638,3.63801c-2.81501,3.16901 -6.42901,4.45901 -8.69802,5.10801c2.50801,1.085 3.69301,2.134 3.88601,3.38701c0.256,1.666 -1.33,2.87801 -3.01001,4.16101c-1.335,1.02 -2.84901,2.176 -2.99001,3.32901c-0.062,0.501 0.137,1.031 0.606,1.618c0.672,0.842 1.054,1.601 1.159,2.293h9.31102v1.793h-9.77902c-1.098,1.375 -3.77201,1.631 -6.16701,1.855c-1.028,0.096 -2.43901,0.229 -2.74701,0.434z" fill="#ffffff"></path><path d="M111.9311,263.01249l1.057,0.564l5.38901,-7.86002l1.185,-1.317c0.576,-0.642 1.723,-0.778 3.86901,-0.979c1.735,-0.163 4.64001,-0.437 5.00601,-1.297c0.136,-0.32 -0.15,-0.972 -0.763,-1.74c-0.775,-0.971 -1.107,-1.966 -0.985,-2.95701c0.233,-1.9 2.065,-3.30001 3.68201,-4.53401l0.001,-0.001c1.079,-0.825 2.42001,-1.849 2.325,-2.46301c-0.04,-0.259 -0.476,-1.211 -4.42301,-2.64201c-0.296,-0.107 -1.08,-0.391 -1.046,-1.17c0.035,-0.81 0.752,-1.001 1.939,-1.318c2.054,-0.548 5.87801,-1.569 8.77402,-4.82801c0.732,-0.824 1.055,-1.313 1.197,-1.583c-0.069,-0.005 -0.152,-0.008 -0.252,-0.008c-0.461,0 -1.06,0.062 -1.694,0.128c-0.776,0.081 -1.578,0.165 -2.353,0.165c-1.125,0 -1.932,-0.182 -2.53701,-0.571c-0.691,-0.444 -1.016,-0.964 -0.966,-1.543c0.091,-1.062 1.231,-1.545 3.30101,-2.42201c1.91,-0.809 4.52401,-1.917 6.82801,-3.76301c0.498,-0.4 0.856,-0.715 1.111,-0.96c-0.554,0.105 -1.135,0.27 -1.369,0.345l-0.176,0.056l-4.38701,-0.426c-0.537,-0.052 -1.794,-0.175 -2.084,-1.139c-0.311,-1.033 0.664,-1.824 2.278,-3.13301l0.002,-0.002c1.48,-1.2 3.32301,-2.69501 4.35501,-4.49201c0.279,-0.487 0.455,-0.834 0.563,-1.078c-0.083,0.012 -0.167,0.026 -0.253,0.04c-0.465,0.076 -1.044,0.171 -1.641,0.171c-0.68,0 -1.26,-0.119 -1.776,-0.365c-1.745,-0.833 -1.574,-2.33 -1.482,-3.13501v-0.001l0.001,-0.012c0.023,-0.202 0.056,-0.495 0.03,-0.597c-0.01,0.003 -0.03,-0.003 -0.066,-0.013c-0.071,-0.02 -0.204,-0.058 -0.436,-0.078c-0.905,-0.073 -1.695,0.547 -2.47001,1.157l-0.007,0.005c-0.721,0.567 -1.467,1.154 -2.349,1.154h-0.001c-0.737,0 -1.394,-0.405 -1.954,-1.205c-0.238,-0.34 -0.416,-0.528 -0.531,-0.629c-0.213,0.429 -0.637,1.854 -0.576,6.36501c0.053,3.83001 -0.335,5.88101 -1.297,6.85501c-0.415,0.421 -0.945,0.643 -1.533,0.643c-0.887,0.001 -1.882,-0.478 -3.22601,-1.55c-0.35,-0.279 -0.581,-0.405 -0.716,-0.463c-0.172,0.69 0.074,2.98301 1.48,7.04201c0.957,2.76201 1.073,4.27501 0.399,5.22101c-0.41,0.576 -1.077,0.868 -1.984,0.868c-0.729,0 -1.579,-0.178 -2.38901,-0.372c-0.492,-0.118 -0.855,-0.075 -0.856,-0.075c-0.22,0.402 0.366,2.59101 0.882,4.52301c0.217,0.812 0.457,1.708 0.701,2.68501c0.618,2.47501 0.646,3.68501 0.106,4.46701c-0.498,0.721 -1.305,0.815 -2.018,0.898c-0.705,0.083 -1.434,0.168 -2.208,0.736c-0.319,0.234 -0.497,0.54 -0.559,0.965c-0.262,1.761 1.523,4.59801 2.232,5.54401l0.328,0.436zM121.31912,250.52446l-1.71,-0.542l12.27103,-38.73408l1.71,0.542z" fill="#ffffff"></path><path d="M96.98097,254.68647l-1.7934,10.62102h1.0194c1.2711,-4.30901 3.12691,-10.77602 3.21731,-11.57702l0.0172,-0.159l0.0717,-0.143c0.0789,-0.157 1.9839,-3.87401 7.41192,-6.61101c2.48801,-1.253 3.57101,-3.01901 3.32701,-4.04601c-0.177,-0.744 -1.122,-0.856 -1.669,-0.856c-0.363,0 -0.769,0.047 -1.207,0.139c-0.8,0.169 -1.507,0.254 -2.103,0.254c-1.764,0 -2.38301,-0.751 -2.59301,-1.382c-0.655,-1.977 2.324,-4.71001 4.93801,-6.65501c0.711,-0.529 2.098,-1.562 2.93401,-2.282c-0.198,-0.011 -0.405,-0.019 -0.604,-0.028c-0.468,-0.019 -1,-0.041 -1.583,-0.083c-1.312,-0.094 -1.845,-0.714 -2.061,-1.219c-0.762,-1.776 1.303,-4.49001 4.30401,-8.12902c0.523,-0.635 1.003,-1.216 1.369,-1.696c0.096,-0.126 0.156,-0.223 0.195,-0.296c-0.148,-0.041 -0.417,-0.088 -0.872,-0.088c-1.412,0 -3.46001,0.467 -4.15101,0.781c-0.485,0.221 -1.009,0.116 -1.338,-0.252c-0.514,-0.576 -0.43,-1.521 -0.172,-3.79101c0.25,-2.193 0.667,-5.86301 -0.419,-6.82901c-0.044,-0.039 -0.067,-0.048 -0.067,-0.048c-0.878,0.136 -2.84901,4.57501 -4.10901,9.31602l-0.045,0.128c-0.286,0.658 -1.2585,1.773 -3.08771,1.773c-0.9979,0 -2.1341,-0.334 -3.37871,-0.993c-0.0259,-0.014 -0.0495,-0.026 -0.0732,-0.038c0.3988,1.365 2.005,4.31101 2.93321,6.01401c0.6449,1.183 1.254,2.3 1.6686,3.16701l0.0018,0.004c0.7503,1.57 0.929,1.945 0.5972,2.47101l-0.264,0.418l-0.5502,0.026c-0.3451,0 -0.6184,-0.159 -1.1141,-0.448c-0.9533,-0.554 -2.72881,-1.586 -5.50351,-1.933c-0.2962,-0.037 -0.5552,-0.058 -0.7697,-0.062c0.4146,0.548 1.226,1.382 1.8615,2.037c1.6141,1.661 3.62341,3.72801 4.45341,5.76001c0.5652,1.383 0.7747,2.046 0.4081,2.59301c-0.1908,0.282 -0.5,0.445 -0.8486,0.445c-0.4376,0 -0.8077,-0.236 -1.4792,-0.666l-0.0173,-0.011c-1.0984,-0.703 -2.95801,-1.894 -5.08161,-1.735c-0.071,0.004 -0.1363,0.01 -0.1958,0.016c0.5315,0.453 1.4296,1.067 2.0882,1.517c1.7403,1.191 3.53941,2.42201 4.19791,3.67301c0.873,1.659 1.2798,2.79301 0.774,3.68201c-0.4584,0.805 -1.4526,0.985 -2.38801,1.041c-0.2174,0.716 0.5308,3.45101 1.6391,5.93201zM100.11807,249.40646l-1.7732,-0.269l4.29921,-28.33606l1.773,0.269z" fill="#ffffff"></path><path d="M99.25777,261.24649c0.1586,-0.551 0.3185,-1.111 0.4756,-1.666h11.86672l-0.806,1.666z" fill="#ffffff"></path></g></g><path d="M183.05788,284.21367v-98.42734h1.98179v98.42734z" data-paper-data="{&quot;isShapeTextSeparator&quot;:true}" fill-rule="nonzero" fill="#ffffff"></path></g></g></svg>