<svg xmlns="http://www.w3.org/2000/svg" xmlns:xlink="http://www.w3.org/1999/xlink" version="1.1" xml:space="preserve" viewBox="0.51 0.51 98.43 98.43">
<desc>Created with Fabric.js 3.6.6</desc>
<defs>
</defs>
<g transform="matrix(1 0 0 1 49.72 49.72)">
<g style="">
		<g transform="matrix(1 0 0 1 0 0)">
<path style="stroke: none; stroke-width: 1; stroke-dasharray: none; stroke-linecap: butt; stroke-dashoffset: 0; stroke-linejoin: miter; stroke-miterlimit: 10; fill: rgb(255,255,255); fill-rule: evenodd; opacity: 1;" transform=" translate(-114.21, -235)" d="M 163.40621 236.46143 l 0.012 -0.491 l 0.007 -0.492 l 0.002 -0.473 v -0.011 l -0.002 -0.491 l -0.007 -0.492 l -0.012 -0.491 l -0.017 -0.492 l -0.021 -0.491 l -0.026 -0.491 l -0.031 -0.492 l -0.036 -0.49 l -0.041 -0.491 l -0.045 -0.49 l -0.051 -0.489 l -0.055 -0.489 l -0.061 -0.489 l -0.065 -0.488 l -0.07 -0.487 l -0.075 -0.487 l -0.08 -0.485 l -0.085 -0.485 l -0.091 -0.484 l -0.094 -0.484 l -0.1 -0.482 l -0.105 -0.481 l -0.109 -0.48 l -0.115 -0.479 l -0.12 -0.477 l -0.124 -0.477 l -0.129 -0.475 l -0.134 -0.474 l -0.139 -0.472 l -0.144 -0.471 l -0.148 -0.469 l -0.153 -0.468 l -0.158 -0.466 l -0.162 -0.465 l -0.167 -0.463 l -0.172 -0.461 l -0.176 -0.459 l -0.18 -0.458 l -0.185 -0.455 l -0.187 -0.447 l -0.193 -0.452 l -0.199 -0.45 l -0.202 -0.448 l -0.208 -0.447 l -0.211 -0.444 l -0.216 -0.442 l -0.22 -0.44 l -0.225 -0.438 l -0.229 -0.436 l -0.233 -0.433 l -0.238 -0.431 l -0.243 -0.429 l -0.246 -0.426 l -0.251 -0.423 l -0.255 -0.421 l -0.26 -0.419 l -0.263 -0.416 l -0.268 -0.413 l -0.272 -0.41 l -0.276 -0.407 l -0.281 -0.405 l -0.284 -0.402 l -0.289 -0.399 l -0.292 -0.396 l -0.297 -0.393 l -0.3 -0.39 l -0.305 -0.387 l -0.308 -0.383 l -0.312 -0.381 l -0.316 -0.377 l -0.319 -0.375 l -0.323 -0.37 l -0.327 -0.368 l -0.33 -0.365 l -0.334 -0.361 l -0.337 -0.358 l -0.341 -0.354 l -0.343 -0.35 l -0.2 -0.201 l -0.349 -0.346 l -0.353 -0.343 l -0.356 -0.339 l -0.36 -0.336 l -0.362 -0.332 l -0.366 -0.329 l -0.369 -0.325 l -0.373 -0.322 l -0.376 -0.318 l -0.379 -0.314 l -0.382 -0.31 l -0.385 -0.307 l -0.388 -0.302 l -0.391 -0.299 l -0.394 -0.295 l -0.398 -0.29 l -0.4 -0.287 l -0.403 -0.283 l -0.406 -0.278 l -0.409 -0.274 l -0.412 -0.271 l -0.414 -0.266 l -0.417 -0.261 l -0.419 -0.258 l -0.423 -0.253 l -0.424 -0.249 l -0.427 -0.245 l -0.43 -0.24 l -0.432 -0.236 l -0.434 -0.231 l -0.437 -0.227 l -0.439 -0.223 l -0.441 -0.218 l -0.443 -0.214 l -0.445 -0.21 l -0.447 -0.205 l -0.449 -0.2 l -0.449 -0.196 l -0.262 -0.111 l -0.453 -0.19 l -0.456 -0.184 l -0.458 -0.181 l -0.46 -0.176 l -0.461 -0.171 l -0.463 -0.167 l -0.464 -0.162 l -0.467 -0.158 l -0.468 -0.153 l -0.469 -0.148 l -0.471 -0.143 l -0.473 -0.139 l -0.473 -0.134 l -0.476 -0.129 l -0.476 -0.124 l -0.478 -0.119 l -0.479 -0.114 l -0.48 -0.11 l -0.481 -0.104 l -0.482 -0.1 l -0.483 -0.095 l -0.484 -0.089 l -0.485 -0.085 l -0.486 -0.08 l -0.487 -0.075 l -0.487 -0.07 l -0.488 -0.065 l -0.488 -0.06 l -0.489 -0.056 l -0.49 -0.05 l -0.49 -0.045 l -0.49 -0.041 l -0.491 -0.036 l -0.491 -0.03 l -0.491 -0.026 l -0.492 -0.022 l -0.491 -0.016 l -0.492 -0.012 l -0.491 -0.006 l -0.484 -0.003 l -0.491 0.003 l -0.492 0.007 l -0.492 0.012 l -0.491 0.016 l -0.492 0.022 l -0.491 0.026 l -0.491 0.031 l -0.491 0.036 l -0.49 0.04 l -0.49 0.046 l -0.49 0.05 l -0.489 0.056 l -0.488 0.06 l -0.488 0.066 l -0.487 0.07 l -0.487 0.075 l -0.486 0.08 l -0.485 0.085 l -0.484 0.09 l -0.483 0.095 l -0.482 0.1 l -0.481 0.105 l -0.48 0.109 l -0.479 0.115 l -0.478 0.119 l -0.476 0.125 l -0.475 0.129 l -0.474 0.134 l -0.472 0.138 l -0.4711 0.144 l -0.4693 0.148 l -0.4679 0.153 l -0.4662 0.158 l -0.4645 0.162 l -0.4629 0.167 l -0.4612 0.172 l -0.4594 0.176 l -0.4575 0.181 l -0.4557 0.185 l -0.4467 0.186 l -0.452 0.194 l -0.4502 0.198 l -0.4482 0.203 l -0.4463 0.207 l -0.4442 0.212 l -0.4422 0.215 l -0.4401 0.221 l -0.4378 0.224 l -0.4356 0.23 l -0.4333 0.233 l -0.431 0.238 l -0.4286 0.242 l -0.4261 0.247 l -0.4236 0.251 l -0.4211 0.255 l -0.4184 0.259 l -0.4158 0.264 l -0.413 0.268 l -0.4104 0.272 l -0.4075 0.276 l -0.4047 0.28 l -0.4019 0.285 l -0.3989 0.288 l -0.3959 0.293 l -0.3929 0.296 l -0.3899 0.301 l -0.3869 0.304 l -0.3837 0.308 l -0.3806 0.312 l -0.3774 0.316 l -0.3742 0.32 l -0.371 0.323 l -0.3677 0.326 l -0.3645 0.331 l -0.3612 0.334 l -0.3579 0.337 l -0.3545 0.341 l -0.3495 0.342 l -0.2015 0.201 l -0.3459 0.349 l -0.3427 0.353 l -0.3392 0.356 l -0.3358 0.359 l -0.3324 0.363 l -0.3288 0.366 l -0.3251 0.369 l -0.3216 0.373 l -0.3178 0.375 l -0.3141 0.379 l -0.3103 0.382 l -0.3065 0.385 l -0.3026 0.389 l -0.2987 0.391 l -0.2948 0.394 l -0.2907 0.397 l -0.2867 0.401 l -0.2826 0.403 l -0.2785 0.406 l -0.2744 0.409 l -0.2702 0.411 l -0.2659 0.415 l -0.2618 0.417 l -0.2575 0.419 l -0.2532 0.422 l -0.2489 0.425 l -0.2446 0.427 l -0.2402 0.43 l -0.2359 0.432 l -0.2315 0.434 l -0.2271 0.437 l -0.2227 0.439 l -0.2183 0.441 l -0.2139 0.443 l -0.2095 0.445 l -0.2051 0.447 l -0.2006 0.449 l -0.1953 0.449 l -0.1115 0.261 l -0.1893 0.454 l -0.185 0.456 l -0.1804 0.458 l -0.176 0.459 l -0.1714 0.462 l -0.1668 0.463 l -0.1622 0.464 l -0.1575 0.467 l -0.1529 0.467 l -0.1481 0.47 l -0.1434 0.471 l -0.1386 0.472 l -0.1338 0.474 l -0.1289 0.475 l -0.1242 0.477 l -0.1192 0.477 l -0.1144 0.479 l -0.1095 0.48 l -0.1046 0.482 l -0.0996 0.482 l -0.0947 0.483 l -0.0898 0.484 l -0.0849 0.485 l -0.0798 0.486 l -0.075 0.486 l -0.07 0.488 l -0.0651 0.488 l -0.0601 0.488 l -0.0553 0.489 l -0.0503 0.49 l -0.0454 0.49 l -0.0405 0.49 l -0.0357 0.491 l -0.0308 0.491 l -0.026 0.491 l -0.0211 0.491 l -0.0164 0.492 l -0.0117 0.491 l -0.0069 0.492 l -0.0022 0.484 l 0.0024 0.491 l 0.0071 0.492 l 0.0118 0.491 l 0.0166 0.492 l 0.0214 0.491 l 0.0261 0.491 l 0.0311 0.492 l 0.0358 0.49 l 0.0407 0.491 l 0.0456 0.49 l 0.0506 0.489 l 0.0554 0.489 l 0.0603 0.489 l 0.0653 0.488 l 0.0702 0.487 l 0.0752 0.487 l 0.08 0.485 l 0.0851 0.485 l 0.09 0.485 l 0.0949 0.483 l 0.0998 0.482 l 0.1048 0.481 l 0.1097 0.48 l 0.1145 0.479 l 0.1195 0.477 l 0.1243 0.477 l 0.1292 0.475 l 0.134 0.474 l 0.1388 0.472 l 0.1435 0.471 l 0.1484 0.469 l 0.153 0.468 l 0.1577 0.466 l 0.1624 0.465 l 0.1669 0.463 l 0.1716 0.461 l 0.1761 0.459 l 0.1807 0.458 l 0.185 0.455 l 0.1864 0.447 l 0.1938 0.452 l 0.1983 0.45 l 0.2026 0.448 l 0.2071 0.447 l 0.2115 0.444 l 0.2159 0.442 l 0.2203 0.44 l 0.2248 0.438 l 0.229 0.436 l 0.2335 0.433 l 0.2379 0.431 l 0.2422 0.428 l 0.2465 0.427 l 0.2509 0.423 l 0.2551 0.421 l 0.2595 0.419 l 0.2636 0.416 l 0.2679 0.412 l 0.2721 0.411 l 0.2762 0.407 l 0.2803 0.405 l 0.2845 0.402 l 0.2885 0.399 l 0.2926 0.396 l 0.2964 0.393 l 0.3005 0.39 l 0.3043 0.386 l 0.3082 0.384 l 0.3121 0.381 l 0.3157 0.377 l 0.3195 0.374 l 0.3232 0.371 l 0.3268 0.368 l 0.3303 0.365 l 0.3339 0.361 l 0.3373 0.358 l 0.3408 0.354 l 0.3424 0.35 l 0.2004 0.201 l 0.3494 0.346 l 0.3527 0.343 l 0.3561 0.339 l 0.3594 0.336 l 0.3627 0.332 l 0.366 0.329 l 0.3692 0.325 l 0.3725 0.322 l 0.3757 0.318 l 0.3788 0.314 l 0.3821 0.31 l 0.3851 0.306 l 0.3882 0.303 l 0.3913 0.299 l 0.3943 0.294 l 0.3973 0.291 l 0.4003 0.287 l 0.4031 0.282 l 0.406 0.279 l 0.4088 0.274 l 0.4116 0.271 l 0.4143 0.265 l 0.4169 0.262 l 0.4197 0.258 l 0.4221 0.253 l 0.4248 0.249 l 0.4272 0.245 l 0.4296 0.24 l 0.432 0.236 l 0.4343 0.231 l 0.4366 0.227 l 0.4388 0.223 l 0.441 0.218 l 0.4431 0.214 l 0.4451 0.21 l 0.4471 0.205 l 0.4491 0.201 l 0.4487 0.195 l 0.2617 0.111 l 0.4539 0.19 l 0.4559 0.184 l 0.4577 0.181 l 0.4595 0.176 l 0.4613 0.171 l 0.463 0.167 l 0.4646 0.162 l 0.4663 0.158 l 0.468 0.153 l 0.4694 0.148 l 0.4714 0.143 l 0.472 0.139 l 0.474 0.134 l 0.475 0.128 l 0.476 0.125 l 0.478 0.119 l 0.479 0.114 l 0.48 0.11 l 0.481 0.104 l 0.482 0.1 l 0.484 0.095 l 0.484 0.09 l 0.485 0.084 l 0.485 0.08 l 0.487 0.075 l 0.487 0.07 l 0.488 0.065 l 0.489 0.06 l 0.489 0.056 l 0.489 0.05 l 0.49 0.046 l 0.491 0.04 l 0.49 0.036 l 0.491 0.03 l 0.492 0.026 l 0.491 0.022 l 0.491 0.016 l 0.492 0.012 l 0.492 0.007 l 0.483 0.002 l 0.492 -0.003 l 0.492 -0.007 l 0.491 -0.012 l 0.492 -0.016 l 0.491 -0.022 l 0.492 -0.026 l 0.49 -0.031 l 0.491 -0.036 l 0.49 -0.04 l 0.49 -0.046 l 0.49 -0.05 l 0.489 -0.056 l 0.489 -0.06 l 0.488 -0.065 l 0.487 -0.071 l 0.487 -0.075 l 0.485 -0.08 l 0.485 -0.085 l 0.484 -0.09 l 0.483 -0.095 l 0.482 -0.1 l 0.482 -0.104 l 0.48 -0.11 l 0.479 -0.115 l 0.477 -0.119 l 0.477 -0.125 l 0.475 -0.129 l 0.473 -0.134 l 0.473 -0.138 l 0.471 -0.144 l 0.469 -0.148 l 0.468 -0.153 l 0.466 -0.158 l 0.465 -0.162 l 0.462 -0.167 l 0.462 -0.172 l 0.459 -0.176 l 0.458 -0.181 l 0.455 -0.185 l 0.447 -0.186 l 0.452 -0.194 l 0.45 -0.198 l 0.448 -0.203 l 0.447 -0.207 l 0.444 -0.212 l 0.442 -0.215 l 0.44 -0.221 l 0.438 -0.224 l 0.435 -0.23 l 0.434 -0.233 l 0.431 -0.238 l 0.428 -0.242 l 0.426 -0.247 l 0.424 -0.251 l 0.421 -0.255 l 0.418 -0.259 l 0.416 -0.264 l 0.413 -0.268 l 0.411 -0.272 l 0.407 -0.276 l 0.405 -0.28 l 0.402 -0.285 l 0.399 -0.288 l 0.395 -0.293 l 0.393 -0.296 l 0.39 -0.301 l 0.387 -0.304 l 0.384 -0.309 l 0.38 -0.311 l 0.378 -0.316 l 0.374 -0.32 l 0.371 -0.323 l 0.368 -0.327 l 0.364 -0.33 l 0.362 -0.334 l 0.357 -0.337 l 0.355 -0.341 l 0.349 -0.342 l 0.202 -0.201 l 0.346 -0.349 l 0.343 -0.353 l 0.339 -0.356 l 0.336 -0.359 l 0.332 -0.363 l 0.329 -0.366 l 0.325 -0.369 l 0.321 -0.373 l 0.318 -0.376 l 0.314 -0.378 l 0.311 -0.382 l 0.306 -0.385 l 0.303 -0.389 l 0.299 -0.391 l 0.294 -0.394 l 0.291 -0.398 l 0.287 -0.4 l 0.282 -0.403 l 0.279 -0.406 l 0.274 -0.409 l 0.27 -0.411 l 0.266 -0.415 l 0.262 -0.417 l 0.258 -0.419 l 0.253 -0.423 l 0.249 -0.424 l 0.244 -0.427 l 0.24 -0.43 l 0.236 -0.432 l 0.232 -0.434 l 0.227 -0.437 l 0.223 -0.439 l 0.218 -0.441 l 0.214 -0.443 l 0.209 -0.445 l 0.205 -0.447 l 0.201 -0.449 l 0.195 -0.449 l 0.112 -0.262 l 0.189 -0.453 l 0.185 -0.456 l 0.18 -0.458 l 0.176 -0.46 l 0.172 -0.461 l 0.167 -0.463 l 0.162 -0.464 l 0.157 -0.467 l 0.153 -0.468 l 0.148 -0.469 l 0.144 -0.471 l 0.138 -0.472 l 0.134 -0.474 l 0.129 -0.475 l 0.124 -0.477 l 0.119 -0.478 l 0.115 -0.478 l 0.109 -0.481 l 0.105 -0.481 l 0.1 -0.482 l 0.094 -0.483 l 0.09 -0.484 l 0.085 -0.485 l 0.08 -0.486 l 0.075 -0.487 l 0.07 -0.487 l 0.065 -0.488 l 0.06 -0.488 l 0.055 -0.489 l 0.05 -0.49 l 0.046 -0.49 l 0.041 -0.49 l 0.035 -0.491 l 0.031 -0.491 l 0.026 -0.491 l 0.021 -0.491 z M 161.1092 234.06743 l 0.007 0.469 l 0.002 0.459 v 0.011 l -0.002 0.461 l -0.007 0.47 l -0.011 0.469 l -0.016 0.47 l -0.02 0.468 l -0.025 0.469 l -0.029 0.468 l -0.034 0.468 l -0.039 0.468 l -0.043 0.467 l -0.049 0.466 l -0.052 0.466 l -0.058 0.466 l -0.062 0.465 l -0.067 0.464 l -0.071 0.463 l -0.076 0.463 l -0.081 0.462 l -0.086 0.461 l -0.09 0.46 l -0.095 0.459 l -0.1 0.458 l -0.104 0.457 l -0.109 0.456 l -0.114 0.455 l -0.118 0.453 l -0.123 0.453 l -0.128 0.451 l -0.132 0.45 l -0.136 0.448 l -0.142 0.447 l -0.145 0.446 l -0.151 0.444 l -0.154 0.443 l -0.159 0.442 l -0.164 0.439 l -0.168 0.438 l -0.172 0.437 l -0.176 0.434 l -0.181 0.434 l -0.105 0.245 l -0.188 0.432 l -0.192 0.429 l -0.195 0.426 l -0.2 0.425 l -0.204 0.422 l -0.208 0.421 l -0.213 0.418 l -0.216 0.416 l -0.221 0.414 l -0.225 0.411 l -0.229 0.41 l -0.233 0.406 l -0.237 0.405 l -0.241 0.402 l -0.246 0.399 l -0.249 0.398 l -0.254 0.394 l -0.257 0.392 l -0.261 0.389 l -0.266 0.387 l -0.269 0.384 l -0.273 0.381 l -0.277 0.378 l -0.281 0.376 l -0.284 0.372 l -0.289 0.37 l -0.292 0.367 l -0.296 0.364 l -0.299 0.361 l -0.303 0.358 l -0.307 0.355 l -0.31 0.352 l -0.314 0.349 l -0.317 0.346 l -0.32 0.343 l -0.324 0.339 l -0.327 0.337 l -0.331 0.334 l -0.189 0.187 l -0.337 0.331 l -0.338 0.325 l -0.342 0.322 l -0.345 0.318 l -0.348 0.316 l -0.35 0.311 l -0.354 0.308 l -0.357 0.305 l -0.36 0.301 l -0.363 0.297 l -0.366 0.293 l -0.368 0.29 l -0.372 0.286 l -0.374 0.283 l -0.377 0.278 l -0.38 0.275 l -0.383 0.271 l -0.385 0.267 l -0.389 0.263 l -0.39 0.259 l -0.394 0.255 l -0.396 0.251 l -0.398 0.247 l -0.402 0.243 l -0.403 0.238 l -0.406 0.235 l -0.408 0.231 l -0.411 0.226 l -0.413 0.223 l -0.415 0.218 l -0.417 0.214 l -0.42 0.21 l -0.421 0.206 l -0.424 0.201 l -0.425 0.198 l -0.428 0.193 l -0.43 0.189 l -0.431 0.185 l -0.426 0.178 l -0.435 0.176 l -0.436 0.172 l -0.439 0.168 l -0.439 0.163 l -0.442 0.16 l -0.442 0.154 l -0.445 0.15 l -0.446 0.146 l -0.447 0.141 l -0.448 0.137 l -0.45 0.132 l -0.451 0.128 l -0.453 0.122 l -0.454 0.119 l -0.454 0.113 l -0.456 0.109 l -0.457 0.105 l -0.458 0.099 l -0.459 0.095 l -0.461 0.09 l -0.461 0.086 l -0.461 0.081 l -0.463 0.076 l -0.463 0.071 l -0.464 0.067 l -0.465 0.062 l -0.466 0.058 l -0.466 0.052 l -0.466 0.048 l -0.467 0.044 l -0.468 0.038 l -0.468 0.035 l -0.468 0.029 l -0.468 0.025 l -0.469 0.02 l -0.469 0.016 l -0.47 0.011 l -0.469 0.007 l -0.47 0.002 l -0.462 -0.002 l -0.469 -0.007 l -0.47 -0.011 l -0.469 -0.016 l -0.469 -0.02 l -0.468 -0.025 l -0.469 -0.03 l -0.468 -0.034 l -0.467 -0.039 l -0.467 -0.043 l -0.467 -0.048 l -0.466 -0.053 l -0.465 -0.057 l -0.465 -0.062 l -0.464 -0.067 l -0.464 -0.072 l -0.462 -0.076 l -0.462 -0.081 l -0.461 -0.085 l -0.46 -0.091 l -0.459 -0.095 l -0.458 -0.099 l -0.457 -0.105 l -0.456 -0.109 l -0.455 -0.113 l -0.454 -0.119 l -0.452 -0.122 l -0.451 -0.128 l -0.45 -0.132 l -0.449 -0.137 l -0.4468 -0.141 l -0.4457 -0.146 l -0.4443 -0.15 l -0.4428 -0.155 l -0.4412 -0.159 l -0.4397 -0.163 l -0.4381 -0.168 l -0.4364 -0.172 l -0.4348 -0.177 l -0.4332 -0.181 l -0.2453 -0.104 l -0.4325 -0.189 l -0.4285 -0.191 l -0.4264 -0.196 l -0.4246 -0.2 l -0.4224 -0.204 l -0.4204 -0.208 l -0.4182 -0.212 l -0.4161 -0.217 l -0.4138 -0.221 l -0.4116 -0.225 l -0.4092 -0.229 l -0.4069 -0.233 l -0.4045 -0.237 l -0.402 -0.241 l -0.3996 -0.246 l -0.397 -0.249 l -0.3945 -0.253 l -0.3919 -0.258 l -0.3892 -0.261 l -0.3865 -0.265 l -0.3839 -0.27 l -0.3811 -0.273 l -0.3783 -0.277 l -0.3755 -0.281 l -0.3726 -0.284 l -0.3698 -0.289 l -0.3669 -0.292 l -0.364 -0.295 l -0.361 -0.3 l -0.358 -0.303 l -0.3551 -0.307 l -0.352 -0.31 l -0.3489 -0.313 l -0.346 -0.317 l -0.3428 -0.321 l -0.3397 -0.324 l -0.3367 -0.327 l -0.3335 -0.33 l -0.1881 -0.189 l -0.3302 -0.338 l -0.3252 -0.338 l -0.3219 -0.342 l -0.3185 -0.345 l -0.3151 -0.347 l -0.3116 -0.351 l -0.3081 -0.354 l -0.3045 -0.357 l -0.3009 -0.36 l -0.2973 -0.363 l -0.2936 -0.365 l -0.2899 -0.369 l -0.2862 -0.371 l -0.2823 -0.375 l -0.2786 -0.377 l -0.2747 -0.38 l -0.2708 -0.383 l -0.2669 -0.385 l -0.2629 -0.388 l -0.259 -0.391 l -0.255 -0.394 l -0.251 -0.396 l -0.247 -0.398 l -0.2428 -0.401 l -0.2388 -0.404 l -0.2348 -0.405 l -0.2306 -0.409 l -0.2265 -0.41 l -0.2223 -0.413 l -0.2182 -0.416 l -0.2141 -0.417 l -0.2099 -0.419 l -0.2057 -0.422 l -0.2015 -0.424 l -0.1974 -0.425 l -0.1933 -0.428 l -0.189 -0.429 l -0.1849 -0.432 l -0.1777 -0.426 l -0.1765 -0.435 l -0.1722 -0.436 l -0.1679 -0.438 l -0.1635 -0.44 l -0.1591 -0.441 l -0.1546 -0.443 l -0.1502 -0.445 l -0.1457 -0.445 l -0.1411 -0.447 l -0.1367 -0.449 l -0.1321 -0.45 l -0.1275 -0.451 l -0.1229 -0.453 l -0.1182 -0.453 l -0.1136 -0.455 l -0.109 -0.456 l -0.1043 -0.457 l -0.0997 -0.458 l -0.0949 -0.459 l -0.0903 -0.46 l -0.0855 -0.461 l -0.0809 -0.462 l -0.0761 -0.463 l -0.0715 -0.463 l -0.0667 -0.464 l -0.0621 -0.465 l -0.0574 -0.465 l -0.0527 -0.466 l -0.048 -0.467 l -0.0433 -0.467 l -0.0388 -0.468 l -0.034 -0.467 l -0.0295 -0.469 l -0.0249 -0.468 l -0.0202 -0.469 l -0.0158 -0.469 l -0.0112 -0.47 l -0.0066 -0.469 l -0.0022 -0.47 l 0.0022 -0.461 l 0.0067 -0.47 l 0.0113 -0.469 l 0.0157 -0.47 l 0.0203 -0.468 l 0.0249 -0.469 l 0.0295 -0.468 l 0.0341 -0.468 l 0.0388 -0.468 l 0.0434 -0.467 l 0.048 -0.467 l 0.0528 -0.466 l 0.0574 -0.465 l 0.0621 -0.465 l 0.0668 -0.464 l 0.0715 -0.463 l 0.0762 -0.463 l 0.0809 -0.462 l 0.0856 -0.461 l 0.0904 -0.46 l 0.0949 -0.459 l 0.0997 -0.458 l 0.1044 -0.457 l 0.109 -0.456 l 0.1136 -0.455 l 0.1183 -0.453 l 0.123 -0.453 l 0.1275 -0.451 l 0.1321 -0.45 l 0.1367 -0.448 l 0.1412 -0.447 l 0.1457 -0.446 l 0.1502 -0.444 l 0.1547 -0.443 l 0.1591 -0.441 l 0.1635 -0.44 l 0.1679 -0.438 l 0.1722 -0.437 l 0.1764 -0.435 l 0.1808 -0.433 l 0.1046 -0.245 l 0.1883 -0.432 l 0.1916 -0.429 l 0.1957 -0.426 l 0.1999 -0.425 l 0.2041 -0.422 l 0.2082 -0.421 l 0.2125 -0.418 l 0.2165 -0.416 l 0.2207 -0.414 l 0.2248 -0.411 l 0.229 -0.41 l 0.2331 -0.407 l 0.2372 -0.404 l 0.2412 -0.402 l 0.2454 -0.4 l 0.2493 -0.397 l 0.2534 -0.394 l 0.2574 -0.392 l 0.2614 -0.389 l 0.2653 -0.387 l 0.2692 -0.384 l 0.2731 -0.381 l 0.277 -0.378 l 0.2808 -0.376 l 0.2846 -0.372 l 0.2884 -0.37 l 0.2921 -0.367 l 0.2958 -0.364 l 0.2994 -0.361 l 0.3031 -0.358 l 0.3066 -0.355 l 0.3102 -0.352 l 0.3136 -0.349 l 0.3171 -0.346 l 0.3205 -0.343 l 0.3238 -0.339 l 0.3272 -0.337 l 0.3304 -0.334 l 0.1892 -0.188 l 0.3371 -0.33 l 0.3385 -0.325 l 0.3417 -0.322 l 0.3447 -0.318 l 0.3478 -0.316 l 0.3508 -0.311 l 0.3538 -0.308 l 0.3569 -0.305 l 0.3599 -0.301 l 0.3628 -0.297 l 0.3657 -0.294 l 0.3687 -0.289 l 0.3715 -0.287 l 0.3744 -0.282 l 0.3772 -0.278 l 0.38 -0.275 l 0.3827 -0.271 l 0.3855 -0.267 l 0.3882 -0.263 l 0.3908 -0.259 l 0.3934 -0.255 l 0.396 -0.251 l 0.3986 -0.247 l 0.401 -0.243 l 0.4035 -0.238 l 0.4059 -0.235 l 0.4083 -0.231 l 0.4106 -0.226 l 0.4129 -0.223 l 0.4151 -0.218 l 0.4173 -0.214 l 0.4195 -0.21 l 0.4216 -0.206 l 0.4237 -0.201 l 0.4256 -0.197 l 0.4276 -0.194 l 0.4296 -0.189 l 0.4314 -0.185 l 0.4262 -0.177 l 0.4349 -0.177 l 0.4365 -0.172 l 0.4382 -0.168 l 0.4397 -0.163 l 0.4413 -0.16 l 0.4428 -0.154 l 0.4444 -0.15 l 0.4457 -0.146 l 0.4469 -0.141 l 0.449 -0.137 l 0.45 -0.132 l 0.451 -0.127 l 0.452 -0.123 l 0.454 -0.119 l 0.455 -0.113 l 0.456 -0.109 l 0.457 -0.105 l 0.458 -0.099 l 0.459 -0.095 l 0.46 -0.09 l 0.461 -0.086 l 0.462 -0.081 l 0.462 -0.076 l 0.464 -0.071 l 0.464 -0.067 l 0.465 -0.062 l 0.465 -0.058 l 0.466 -0.052 l 0.467 -0.048 l 0.467 -0.044 l 0.467 -0.038 l 0.468 -0.034 l 0.468 -0.03 l 0.469 -0.025 l 0.469 -0.02 l 0.469 -0.016 l 0.469 -0.011 l 0.47 -0.007 l 0.469 -0.002 l 0.462 0.002 l 0.47 0.007 l 0.469 0.011 l 0.469 0.016 l 0.469 0.02 l 0.469 0.025 l 0.468 0.03 l 0.468 0.034 l 0.468 0.039 l 0.467 0.043 l 0.466 0.048 l 0.466 0.053 l 0.466 0.057 l 0.465 0.062 l 0.464 0.067 l 0.463 0.072 l 0.463 0.076 l 0.461 0.081 l 0.461 0.085 l 0.461 0.091 l 0.459 0.095 l 0.458 0.099 l 0.457 0.105 l 0.455 0.109 l 0.455 0.113 l 0.454 0.119 l 0.452 0.123 l 0.452 0.127 l 0.45 0.132 l 0.448 0.137 l 0.447 0.141 l 0.446 0.146 l 0.444 0.15 l 0.443 0.155 l 0.441 0.159 l 0.44 0.163 l 0.438 0.168 l 0.436 0.172 l 0.435 0.177 l 0.433 0.181 l 0.245 0.104 l 0.433 0.189 l 0.429 0.191 l 0.426 0.196 l 0.425 0.2 l 0.422 0.204 l 0.42 0.208 l 0.419 0.213 l 0.416 0.216 l 0.413 0.221 l 0.412 0.225 l 0.409 0.229 l 0.407 0.233 l 0.405 0.237 l 0.402 0.241 l 0.399 0.245 l 0.397 0.25 l 0.395 0.253 l 0.392 0.258 l 0.389 0.261 l 0.387 0.265 l 0.383 0.27 l 0.381 0.273 l 0.379 0.277 l 0.375 0.28 l 0.373 0.285 l 0.37 0.288 l 0.367 0.293 l 0.364 0.295 l 0.361 0.3 l 0.358 0.303 l 0.355 0.306 l 0.352 0.311 l 0.349 0.313 l 0.346 0.317 l 0.342 0.321 l 0.34 0.324 l 0.337 0.327 l 0.333 0.33 l 0.188 0.189 l 0.331 0.337 l 0.325 0.339 l 0.322 0.342 l 0.318 0.344 l 0.315 0.348 l 0.312 0.351 l 0.308 0.354 l 0.304 0.357 l 0.301 0.36 l 0.298 0.362 l 0.293 0.366 l 0.29 0.369 l 0.286 0.371 l 0.283 0.375 l 0.278 0.377 l 0.275 0.38 l 0.271 0.383 l 0.267 0.385 l 0.262 0.388 l 0.26 0.391 l 0.254 0.394 l 0.252 0.396 l 0.246 0.398 l 0.243 0.401 l 0.239 0.404 l 0.235 0.406 l 0.23 0.408 l 0.227 0.41 l 0.222 0.413 l 0.218 0.415 l 0.214 0.418 l 0.211 0.419 l 0.205 0.422 l 0.202 0.424 l 0.197 0.425 l 0.193 0.428 l 0.189 0.429 l 0.185 0.432 l 0.178 0.426 l 0.177 0.435 l 0.172 0.436 l 0.168 0.438 l 0.163 0.44 l 0.159 0.441 l 0.155 0.443 l 0.15 0.445 l 0.146 0.445 l 0.141 0.448 l 0.136 0.448 l 0.133 0.45 l 0.127 0.451 l 0.123 0.453 l 0.118 0.453 l 0.114 0.455 l 0.109 0.456 l 0.104 0.457 l 0.1 0.458 l 0.095 0.459 l 0.09 0.46 l 0.086 0.461 l 0.08 0.462 l 0.077 0.463 l 0.071 0.463 l 0.067 0.464 l 0.062 0.465 l 0.057 0.465 l 0.053 0.466 l 0.048 0.467 l 0.043 0.467 l 0.039 0.468 l 0.034 0.467 l 0.029 0.469 l 0.025 0.468 l 0.021 0.469 l 0.015 0.469 z" stroke-linecap="round"/>
</g>
		<g transform="matrix(1 0 0 1 0 0)">
<path style="stroke: none; stroke-width: 1; stroke-dasharray: none; stroke-linecap: butt; stroke-dashoffset: 0; stroke-linejoin: miter; stroke-miterlimit: 10; fill: rgb(255,255,255); fill-rule: evenodd; opacity: 1;" transform=" translate(-114.21, -235)" d="M 114.2141 191.27034 c -24.15175 0 -43.73039 19.57904 -43.73039 43.73009 c 0 24.15105 19.57864 43.73009 43.73039 43.73009 c 24.15105 0 43.73009 -19.57904 43.73009 -43.73009 c 0 -24.15105 -19.57904 -43.73009 -43.73009 -43.73009 z M 120.85312 255.63847 l -1.1 1.231 l -0.628 0.918 h 25.56205 v 1.793 h -26.79006 l -1.141 1.665 h 21.83305 v 1.793 h -23.06005 l -1.969 2.87601 l -3.99301 -2.132 l 0.359 -0.744 h -11.18622 c -0.49 1.689 -0.8902 3.04101 -1.0021 3.42001 l -0.1901 0.642 h -4.48131 l 0.6858 -4.06101 h -6.81131 v -1.793 h 7.11401 l 0.2812 -1.666 h -10.56442 v -1.793 h 10.86712 l 0.4857 -2.86501 c -0.1887 -0.431 -0.414 -0.975 -0.6385 -1.571 h -6.34851 v -1.794 h 5.74951 c -0.4526 -1.581 -0.6843 -3.19101 -0.1499 -4.06601 c 0.2848 -0.465 0.7482 -0.738 1.3063 -0.767 c 0.6528 -0.035 0.9139 -0.118 1.0072 -0.161 c -0.0015 -0.171 -0.1098 -0.648 -0.7913 -1.943 c -0.4512 -0.857 -2.2101 -2.06 -3.62331 -3.02701 c -2.1356 -1.461 -3.54661 -2.42701 -3.22591 -3.61801 c 0.2804 -1.042 1.6355 -1.141 2.2137 -1.185 c 2.175 -0.157 4.02651 0.712 5.32991 1.484 c -0.7941 -1.618 -2.51571 -3.38901 -3.91811 -4.83201 c -1.8666 -1.92 -2.99281 -3.08001 -2.52581 -4.18601 c 0.3787 -0.896 1.4928 -0.896 1.8586 -0.896 c 0.3092 0 0.6636 0.025 1.0832 0.078 c 1.9856 0.247 3.53871 0.817 4.66141 1.348 c -0.3645 -0.711 -0.8193 -1.546 -1.2941 -2.41601 c -2.63771 -4.83901 -3.72171 -7.08101 -3.03301 -8.24102 c 0.2374 -0.399 0.6571 -0.628 1.1528 -0.628 c 0.4003 0 0.8558 0.143 1.434 0.449 c 0.9835 0.521 1.8378 0.785 2.54011 0.785 c 0.9605 0 1.3372 -0.515 1.4232 -0.659 c 0.8681 -3.24801 3.12411 -10.55502 5.84011 -10.55502 c 0.442 0 0.869 0.172 1.236 0.498 c 1.781 1.583 1.354 5.34501 1.01 8.36802 v 0.003 c -0.073 0.64 -0.156 1.379 -0.186 1.912 c 1.089 -0.326 2.73201 -0.645 4.06501 -0.645 c 0.508 0 2.051 0 2.57801 1.064 c 0.314 0.634 0.154 1.374 -0.474 2.199 c -0.378 0.496 -0.873 1.095 -1.412 1.75 l -0.002 0.002 v 0.001 c -1.112 1.348 -4.48301 5.43701 -4.03801 6.28101 c 0 0 0.11 0.104 0.539 0.135 c 0.564 0.04 1.078 0.062 1.53 0.08 c 1.629 0.069 2.61101 0.109 2.89301 1.026 c 0.312 1.01 -0.522 1.757 -4.22701 4.51501 c -3.85601 2.86901 -4.37801 4.39901 -4.30601 4.65301 c 0.03 0.026 0.282 0.151 0.89 0.151 c 0.472 0 1.055 -0.072 1.734 -0.215 c 2.62901 -0.551 4.56701 0.281 4.99001 2.058 c 0.488 2.058 -1.265 4.55001 -4.26501 6.06101 c -4.40401 2.222 -6.22001 5.11401 -6.55601 5.70401 c -0.113 0.61 -0.482 2.013 -0.939 3.66501 h 12.23203 l 2.149 -4.43901 h -8.57502 v -1.794 h 9.44302 l 0.02 -0.042 c -0.786 -1.146 -2.59801 -4.09001 -2.25 -6.43201 c 0.132 -0.892 0.572 -1.635 1.273 -2.149 c 1.155 -0.846 2.255 -0.975 3.05901 -1.069 c 0.267 -0.032 0.67 -0.079 0.759 -0.146 c 0.04 -0.06 0.241 -0.524 -0.378 -3.00401 c -0.242 -0.968 -0.479 -1.854 -0.693 -2.65701 c -0.871 -3.25501 -1.35 -5.04801 -0.536 -6.10901 c 0.242 -0.316 0.714 -0.693 1.577 -0.693 c 0.317 0 0.67 0.048 1.081 0.147 c 0.67 0.16 1.428 0.323 1.972 0.323 c 0.273 0 0.474 -0.044 0.524 -0.115 c 0.069 -0.096 0.362 -0.724 -0.633 -3.59401 c -1.621 -4.68201 -2.02 -7.65002 -1.188 -8.82102 c 0.298 -0.418 0.745 -0.648 1.258 -0.648 c 0.58 0 1.209 0.286 1.979 0.901 c 1.264 1.008 1.863 1.158 2.108 1.158 c 0.109 0 0.176 -0.028 0.255 -0.108 c 0.316 -0.321 0.837 -1.47 0.781 -5.57201 c -0.079 -5.76801 0.601 -7.20602 1.201 -7.81502 c 0.305 -0.309 0.679 -0.472 1.083 -0.472 c 0.929 0 1.635 0.856 2.086 1.498 c 0.19 0.272 0.376 0.44 0.485 0.44 c 0.261 0 0.804 -0.427 1.241 -0.77 c 0.942 -0.742 2.156 -1.681 3.74101 -1.539 c 0.817 0.072 1.389 0.321 1.749 0.762 c 0.499 0.61 0.415 1.341 0.348 1.929 c -0.098 0.849 -0.067 1.056 0.472 1.312 c 0.269 0.129 0.598 0.191 1.004 0.191 c 0.451 0 0.93 -0.078 1.353 -0.147 c 0.38 -0.062 0.738 -0.12 1.057 -0.12 c 0.752 0 1.113 0.349 1.283 0.642 c 0.427 0.739 0.027 1.725 -0.807 3.17901 c -1.198 2.086 -3.26901 3.76601 -4.78101 4.99201 c -0.435 0.353 -0.937 0.76 -1.284 1.082 c 0.042 0.005 0.086 0.01 0.133 0.014 l 4.02501 0.391 c 0.465 -0.139 1.666 -0.47 2.53601 -0.47 c 1.022 0 1.402 0.471 1.54 0.865 c 0.303 0.861 -0.329 1.779 -2.332 3.38301 c -2.49701 2.002 -5.24301 3.16501 -7.24802 4.01501 c -0.674 0.287 -1.468 0.623 -1.929 0.881 c 0.309 0.14 0.788 0.211 1.431 0.211 c 0.682 0 1.437 -0.079 2.166 -0.155 c 0.682 -0.071 1.327 -0.138 1.88 -0.138 c 0.441 0 1.614 0 2.034 0.937 c 0.445 0.989 -0.334 2.17 -1.638 3.63801 c -2.81501 3.16901 -6.42901 4.45901 -8.69802 5.10801 c 2.50801 1.085 3.69301 2.134 3.88601 3.38701 c 0.256 1.666 -1.33 2.87801 -3.01001 4.16101 c -1.335 1.02 -2.84901 2.176 -2.99001 3.32901 c -0.062 0.501 0.137 1.031 0.606 1.618 c 0.672 0.842 1.054 1.601 1.159 2.293 h 9.31102 v 1.793 h -9.77902 c -1.098 1.375 -3.77201 1.631 -6.16701 1.855 c -1.028 0.096 -2.43901 0.229 -2.74701 0.434 z" stroke-linecap="round"/>
</g>
		<g transform="matrix(1 0 0 1 13.04 -0.19)">
<path style="stroke: none; stroke-width: 1; stroke-dasharray: none; stroke-linecap: butt; stroke-dashoffset: 0; stroke-linejoin: miter; stroke-miterlimit: 10; fill: rgb(255,255,255); fill-rule: evenodd; opacity: 1;" transform=" translate(-127.25, -234.81)" d="M 111.9311 263.01249 l 1.057 0.564 l 5.38901 -7.86002 l 1.185 -1.317 c 0.576 -0.642 1.723 -0.778 3.86901 -0.979 c 1.735 -0.163 4.64001 -0.437 5.00601 -1.297 c 0.136 -0.32 -0.15 -0.972 -0.763 -1.74 c -0.775 -0.971 -1.107 -1.966 -0.985 -2.95701 c 0.233 -1.9 2.065 -3.30001 3.68201 -4.53401 l 0.001 -0.001 c 1.079 -0.825 2.42001 -1.849 2.325 -2.46301 c -0.04 -0.259 -0.476 -1.211 -4.42301 -2.64201 c -0.296 -0.107 -1.08 -0.391 -1.046 -1.17 c 0.035 -0.81 0.752 -1.001 1.939 -1.318 c 2.054 -0.548 5.87801 -1.569 8.77402 -4.82801 c 0.732 -0.824 1.055 -1.313 1.197 -1.583 c -0.069 -0.005 -0.152 -0.008 -0.252 -0.008 c -0.461 0 -1.06 0.062 -1.694 0.128 c -0.776 0.081 -1.578 0.165 -2.353 0.165 c -1.125 0 -1.932 -0.182 -2.53701 -0.571 c -0.691 -0.444 -1.016 -0.964 -0.966 -1.543 c 0.091 -1.062 1.231 -1.545 3.30101 -2.42201 c 1.91 -0.809 4.52401 -1.917 6.82801 -3.76301 c 0.498 -0.4 0.856 -0.715 1.111 -0.96 c -0.554 0.105 -1.135 0.27 -1.369 0.345 l -0.176 0.056 l -4.38701 -0.426 c -0.537 -0.052 -1.794 -0.175 -2.084 -1.139 c -0.311 -1.033 0.664 -1.824 2.278 -3.13301 l 0.002 -0.002 c 1.48 -1.2 3.32301 -2.69501 4.35501 -4.49201 c 0.279 -0.487 0.455 -0.834 0.563 -1.078 c -0.083 0.012 -0.167 0.026 -0.253 0.04 c -0.465 0.076 -1.044 0.171 -1.641 0.171 c -0.68 0 -1.26 -0.119 -1.776 -0.365 c -1.745 -0.833 -1.574 -2.33 -1.482 -3.13501 v -0.001 l 0.001 -0.012 c 0.023 -0.202 0.056 -0.495 0.03 -0.597 c -0.01 0.003 -0.03 -0.003 -0.066 -0.013 c -0.071 -0.02 -0.204 -0.058 -0.436 -0.078 c -0.905 -0.073 -1.695 0.547 -2.47001 1.157 l -0.007 0.005 c -0.721 0.567 -1.467 1.154 -2.349 1.154 h -0.001 c -0.737 0 -1.394 -0.405 -1.954 -1.205 c -0.238 -0.34 -0.416 -0.528 -0.531 -0.629 c -0.213 0.429 -0.637 1.854 -0.576 6.36501 c 0.053 3.83001 -0.335 5.88101 -1.297 6.85501 c -0.415 0.421 -0.945 0.643 -1.533 0.643 c -0.887 0.001 -1.882 -0.478 -3.22601 -1.55 c -0.35 -0.279 -0.581 -0.405 -0.716 -0.463 c -0.172 0.69 0.074 2.98301 1.48 7.04201 c 0.957 2.76201 1.073 4.27501 0.399 5.22101 c -0.41 0.576 -1.077 0.868 -1.984 0.868 c -0.729 0 -1.579 -0.178 -2.38901 -0.372 c -0.492 -0.118 -0.855 -0.075 -0.856 -0.075 c -0.22 0.402 0.366 2.59101 0.882 4.52301 c 0.217 0.812 0.457 1.708 0.701 2.68501 c 0.618 2.47501 0.646 3.68501 0.106 4.46701 c -0.498 0.721 -1.305 0.815 -2.018 0.898 c -0.705 0.083 -1.434 0.168 -2.208 0.736 c -0.319 0.234 -0.497 0.54 -0.559 0.965 c -0.262 1.761 1.523 4.59801 2.232 5.54401 l 0.328 0.436 z M 121.31912 250.52446 l -1.71 -0.542 l 12.27103 -38.73408 l 1.71 0.542 z" stroke-linecap="round"/>
</g>
		<g transform="matrix(1 0 0 1 -12.85 2.8)">
<path style="stroke: none; stroke-width: 1; stroke-dasharray: none; stroke-linecap: butt; stroke-dashoffset: 0; stroke-linejoin: miter; stroke-miterlimit: 10; fill: rgb(255,255,255); fill-rule: evenodd; opacity: 1;" transform=" translate(-101.37, -237.81)" d="M 96.98097 254.68647 l -1.7934 10.62102 h 1.0194 c 1.2711 -4.30901 3.12691 -10.77602 3.21731 -11.57702 l 0.0172 -0.159 l 0.0717 -0.143 c 0.0789 -0.157 1.9839 -3.87401 7.41192 -6.61101 c 2.48801 -1.253 3.57101 -3.01901 3.32701 -4.04601 c -0.177 -0.744 -1.122 -0.856 -1.669 -0.856 c -0.363 0 -0.769 0.047 -1.207 0.139 c -0.8 0.169 -1.507 0.254 -2.103 0.254 c -1.764 0 -2.38301 -0.751 -2.59301 -1.382 c -0.655 -1.977 2.324 -4.71001 4.93801 -6.65501 c 0.711 -0.529 2.098 -1.562 2.93401 -2.282 c -0.198 -0.011 -0.405 -0.019 -0.604 -0.028 c -0.468 -0.019 -1 -0.041 -1.583 -0.083 c -1.312 -0.094 -1.845 -0.714 -2.061 -1.219 c -0.762 -1.776 1.303 -4.49001 4.30401 -8.12902 c 0.523 -0.635 1.003 -1.216 1.369 -1.696 c 0.096 -0.126 0.156 -0.223 0.195 -0.296 c -0.148 -0.041 -0.417 -0.088 -0.872 -0.088 c -1.412 0 -3.46001 0.467 -4.15101 0.781 c -0.485 0.221 -1.009 0.116 -1.338 -0.252 c -0.514 -0.576 -0.43 -1.521 -0.172 -3.79101 c 0.25 -2.193 0.667 -5.86301 -0.419 -6.82901 c -0.044 -0.039 -0.067 -0.048 -0.067 -0.048 c -0.878 0.136 -2.84901 4.57501 -4.10901 9.31602 l -0.045 0.128 c -0.286 0.658 -1.2585 1.773 -3.08771 1.773 c -0.9979 0 -2.1341 -0.334 -3.37871 -0.993 c -0.0259 -0.014 -0.0495 -0.026 -0.0732 -0.038 c 0.3988 1.365 2.005 4.31101 2.93321 6.01401 c 0.6449 1.183 1.254 2.3 1.6686 3.16701 l 0.0018 0.004 c 0.7503 1.57 0.929 1.945 0.5972 2.47101 l -0.264 0.418 l -0.5502 0.026 c -0.3451 0 -0.6184 -0.159 -1.1141 -0.448 c -0.9533 -0.554 -2.72881 -1.586 -5.50351 -1.933 c -0.2962 -0.037 -0.5552 -0.058 -0.7697 -0.062 c 0.4146 0.548 1.226 1.382 1.8615 2.037 c 1.6141 1.661 3.62341 3.72801 4.45341 5.76001 c 0.5652 1.383 0.7747 2.046 0.4081 2.59301 c -0.1908 0.282 -0.5 0.445 -0.8486 0.445 c -0.4376 0 -0.8077 -0.236 -1.4792 -0.666 l -0.0173 -0.011 c -1.0984 -0.703 -2.95801 -1.894 -5.08161 -1.735 c -0.071 0.004 -0.1363 0.01 -0.1958 0.016 c 0.5315 0.453 1.4296 1.067 2.0882 1.517 c 1.7403 1.191 3.53941 2.42201 4.19791 3.67301 c 0.873 1.659 1.2798 2.79301 0.774 3.68201 c -0.4584 0.805 -1.4526 0.985 -2.38801 1.041 c -0.2174 0.716 0.5308 3.45101 1.6391 5.93201 z M 100.11807 249.40646 l -1.7732 -0.269 l 4.29921 -28.33606 l 1.773 0.269 z" stroke-linecap="round"/>
</g>
		<g transform="matrix(1 0 0 1 -8.78 25.41)">
<path style="stroke: none; stroke-width: 1; stroke-dasharray: none; stroke-linecap: butt; stroke-dashoffset: 0; stroke-linejoin: miter; stroke-miterlimit: 10; fill: rgb(255,255,255); fill-rule: evenodd; opacity: 1;" transform=" translate(-105.43, -260.41)" d="M 99.25777 261.24649 c 0.1586 -0.551 0.3185 -1.111 0.4756 -1.666 h 11.86672 l -0.806 1.666 z" stroke-linecap="round"/>
</g>
</g>
</g>
</svg>