<svg xmlns="http://www.w3.org/2000/svg" xml:space="preserve" viewBox=".51 .51 98.43 98.43"><path style="stroke:none;stroke-width:1;stroke-dasharray:none;stroke-linecap:butt;stroke-dashoffset:0;stroke-linejoin:miter;stroke-miterlimit:10;fill:#fff;fill-rule:evenodd;opacity:1" transform="translate(-64.49 -185.28)" d="m163.406 236.461.012-.49.007-.493.002-.473v-.01l-.002-.492-.007-.492-.012-.49-.017-.493-.02-.49-.027-.492-.03-.492-.037-.49-.04-.49-.046-.49-.05-.49-.056-.489-.06-.489-.066-.488-.07-.487-.075-.487-.08-.485-.085-.485-.09-.484-.095-.484-.1-.482-.105-.48-.109-.48-.115-.48-.12-.477-.124-.477-.129-.475-.134-.474-.139-.472-.144-.47-.148-.47-.153-.468-.158-.466-.162-.465-.167-.463-.172-.46-.176-.46-.18-.458-.185-.455-.187-.447-.193-.452-.199-.45-.202-.448-.208-.447-.21-.444-.217-.442-.22-.44-.225-.438-.229-.436-.233-.433-.238-.43-.243-.43-.246-.426-.25-.423-.256-.42-.26-.42-.263-.416-.268-.413-.272-.41-.276-.407-.28-.405-.285-.402-.289-.399-.292-.396-.297-.393-.3-.39-.305-.387-.308-.383-.312-.38-.316-.378-.319-.375-.323-.37-.327-.368-.33-.365-.334-.36-.337-.359-.34-.354-.344-.35-.2-.2-.349-.347-.353-.343-.356-.339-.36-.336-.362-.332-.366-.329-.369-.325-.373-.322-.376-.318-.379-.314-.382-.31-.385-.307-.388-.302-.39-.299-.395-.295-.398-.29-.4-.287-.403-.283-.406-.278-.409-.274-.412-.27-.414-.267-.417-.26-.419-.259-.423-.253-.424-.249-.427-.245-.43-.24-.432-.236-.434-.23-.437-.228-.439-.223-.44-.218-.444-.214-.445-.21-.447-.205-.449-.2-.449-.196-.262-.11-.453-.19-.456-.185-.458-.18-.46-.177-.46-.17-.464-.168-.464-.162-.467-.158-.468-.153-.469-.148-.47-.143-.474-.139-.473-.134-.476-.129-.476-.124-.478-.119-.479-.114-.48-.11-.48-.104-.483-.1-.483-.095-.484-.089-.485-.085-.486-.08-.487-.075-.487-.07-.488-.065-.488-.06-.489-.056-.49-.05-.49-.045-.49-.04-.49-.037-.492-.03-.49-.026-.493-.022-.49-.016-.493-.012-.49-.006-.485-.003-.49.003-.493.007-.492.012-.49.016-.493.022-.49.026-.492.031-.49.036-.49.04-.49.046-.49.05-.49.056-.488.06-.488.066-.487.07-.487.075-.486.08-.485.085-.484.09-.483.095-.482.1-.48.105-.48.11-.48.114-.478.12-.476.124-.475.13-.474.133-.472.138-.47.144-.47.148-.468.153-.466.158-.465.162-.463.167-.46.172-.46.176-.458.181-.455.185-.447.186-.452.194-.45.198-.449.203-.446.207-.444.212-.442.215-.44.221-.438.224-.436.23-.433.233-.431.238-.429.242-.426.247-.423.251-.421.255-.419.26-.416.263-.413.268-.41.272-.408.276-.404.28-.402.285-.4.288-.395.293-.393.296-.39.301-.387.304-.383.308-.381.312-.377.316-.375.32-.37.323-.368.326-.365.331-.361.334-.358.337-.354.341-.35.342-.201.201-.346.35-.343.352-.34.356-.335.36-.332.362-.33.366-.324.37-.322.372-.318.375-.314.38-.31.381-.307.385-.302.39-.299.39-.295.394-.29.397-.287.401-.283.403-.278.406-.275.41-.27.41-.266.415-.261.417-.258.42-.253.421-.25.425-.244.427-.24.43-.236.432-.231.434-.227.437-.223.44-.218.44-.214.443-.21.445-.205.447-.2.45-.196.448-.111.261-.19.454-.185.456-.18.458-.176.46-.171.461-.167.463-.162.464-.158.467-.153.467-.148.47-.143.471-.139.472-.134.474-.129.475-.124.477-.119.477-.114.48-.11.48-.104.481-.1.482-.095.483-.09.484-.084.485-.08.486-.075.486-.07.488-.065.488-.06.488-.056.49-.05.49-.045.49-.041.49-.036.49-.03.491-.026.491-.022.491-.016.492-.012.491-.007.492-.002.484.003.491.007.492.012.491.016.492.022.491.026.491.03.492.037.49.04.491.046.49.05.49.056.488.06.49.065.487.07.487.076.487.08.485.085.485.09.485.095.483.1.482.104.481.11.48.115.48.12.476.123.477.13.475.134.474.138.472.144.471.148.47.153.467.158.466.162.465.167.463.172.461.176.46.18.457.186.455.186.447.194.452.198.45.203.448.207.447.211.444.216.442.22.44.225.438.23.436.233.433.238.431.242.428.247.427.25.423.256.421.259.42.264.415.268.412.272.411.276.407.28.405.285.402.288.4.293.395.296.393.3.39.305.386.308.384.312.381.316.377.32.374.323.371.326.368.33.365.335.361.337.358.34.354.343.35.2.201.35.346.353.343.356.34.36.335.362.332.366.33.369.324.373.322.375.318.379.314.382.31.385.306.388.303.392.3.394.293.397.291.4.287.404.282.406.28.409.273.411.271.414.265.417.262.42.258.422.253.425.25.427.244.43.24.432.236.434.231.437.227.438.223.441.218.444.214.445.21.447.205.449.201.449.195.261.111.454.19.456.184.458.181.46.176.46.171.464.167.464.162.466.158.468.153.47.148.471.143.472.14.474.133.475.128.476.125.478.12.48.113.48.11.48.104.482.1.484.095.484.09.485.084.485.08.487.075.487.07.488.065.49.06.488.056.49.05.49.046.49.04.49.036.491.03.492.026.491.022.491.016.492.012.492.007.483.002.492-.003.492-.007.491-.012.492-.016.491-.022.492-.026.49-.03.491-.037.49-.04.49-.046.49-.05.49-.056.488-.06.488-.065.487-.07.487-.076.485-.08.485-.085.484-.09.483-.095.482-.1.482-.104.48-.11.48-.115.476-.119.477-.125.475-.129.473-.134.473-.138.471-.144.47-.148.467-.153.466-.158.465-.162.462-.167.462-.172.46-.176.457-.18.455-.186.447-.186.452-.194.45-.198.448-.203.447-.207.444-.212.442-.215.44-.22.438-.225.435-.23.434-.233.431-.238.428-.242.426-.247.424-.25.421-.256.418-.259.416-.264.413-.268.411-.272.407-.276.405-.28.402-.285.4-.288.394-.293.393-.296.39-.3.387-.305.384-.309.38-.31.378-.317.374-.32.371-.323.368-.327.364-.33.362-.334.357-.337.355-.34.35-.343.201-.2.346-.35.343-.353.34-.356.335-.359.332-.363.33-.366.324-.369.321-.373.318-.376.314-.378.311-.382.306-.385.303-.389.3-.39.293-.395.291-.398.287-.4.282-.403.28-.406.273-.409.27-.41.266-.416.262-.417.258-.419.253-.423.25-.424.243-.427.24-.43.236-.432.232-.434.227-.437.223-.439.218-.44.214-.444.21-.445.204-.447.201-.449.195-.449.112-.262.19-.453.184-.456.18-.458.176-.46.172-.46.167-.464.162-.464.157-.467.153-.468.148-.469.144-.47.138-.473.134-.474.13-.475.123-.477.12-.478.114-.478.11-.48.104-.482.1-.482.094-.483.09-.484.085-.485.08-.486.075-.487.07-.487.065-.488.06-.488.055-.489.05-.49.046-.49.041-.49.035-.49.031-.492.026-.49.021-.492zm-2.297-2.394.007.47.002.458v.011l-.002.461-.007.47-.01.47-.017.47-.02.467-.025.47-.029.467-.034.468-.039.468-.043.467-.049.466-.052.466-.058.466-.062.465-.067.464-.07.463-.077.463-.08.462-.087.461-.09.46-.095.46-.1.457-.104.457-.109.456-.114.455-.118.453-.123.453-.128.451-.132.45-.136.448-.142.447-.145.446-.15.444-.155.443-.159.442-.164.44-.168.437-.172.437-.176.434-.18.434-.106.245-.188.432-.192.43-.195.425-.2.425-.204.422-.208.421-.213.418-.216.416-.22.414-.226.411-.229.41-.233.406-.237.405-.24.402-.247.4-.249.397-.254.394-.257.392-.26.39-.267.386-.269.384-.273.381-.277.378-.28.376-.285.372-.289.37-.292.367-.296.364-.299.361-.303.358-.307.355-.31.352-.314.35-.317.345-.32.343-.324.34-.327.336-.33.334-.19.187-.337.331-.338.325-.342.322-.345.318-.348.316-.35.311-.354.308-.357.305-.36.301-.363.297-.366.293-.368.29-.372.286-.374.283-.377.278-.38.275-.383.271-.385.267-.389.263-.39.26-.394.254-.396.251-.398.247-.402.243-.403.238-.406.235-.408.231-.41.226-.414.223-.415.218-.417.214-.42.21-.42.206-.425.201-.425.198-.428.193-.43.19-.43.184-.427.178-.435.176-.436.172-.439.168-.439.163-.442.16-.442.154-.445.15-.446.146-.447.141-.448.137-.45.132-.45.128-.454.122-.454.12-.454.112-.456.11-.457.104-.458.1-.459.094-.46.09-.462.086-.46.081-.464.076-.463.071-.464.067-.465.062-.466.058-.466.052-.466.048-.467.044-.468.038-.468.035-.468.03-.468.024-.469.02-.469.016-.47.011-.469.007-.47.002-.462-.002-.469-.007-.47-.01-.469-.017-.469-.02-.468-.025-.469-.03-.468-.034-.467-.039-.467-.043-.467-.048-.466-.053-.465-.057-.465-.062-.464-.067-.464-.072-.462-.076-.462-.08-.46-.086-.46-.09-.46-.096-.458-.099-.457-.105-.456-.109-.455-.113-.454-.119-.452-.122-.45-.128-.45-.132-.45-.137-.447-.14-.445-.147-.445-.15-.442-.155-.442-.159-.44-.163-.437-.168-.437-.172-.435-.177-.433-.18-.245-.105-.433-.189-.428-.19-.426-.197-.425-.2-.422-.204-.42-.208-.42-.212-.415-.217-.414-.22-.412-.226-.409-.229-.407-.233-.404-.237-.402-.24-.4-.247-.397-.249-.394-.253-.392-.258-.39-.26-.386-.266-.384-.27-.38-.273-.38-.277-.375-.28-.372-.285-.37-.289-.367-.292-.364-.295-.361-.3-.358-.303-.355-.307-.352-.31-.349-.313-.346-.317-.343-.32-.34-.325-.336-.327-.334-.33-.188-.189-.33-.338-.325-.338-.322-.342-.319-.345-.315-.347-.311-.35-.308-.355-.305-.357-.3-.36-.298-.363-.294-.365-.29-.369-.286-.37-.282-.376-.279-.377-.274-.38-.271-.383-.267-.385-.263-.388-.259-.39-.255-.395-.251-.396-.247-.398-.243-.4-.239-.405-.234-.405-.231-.409-.226-.41-.223-.413-.218-.416-.214-.417-.21-.419-.206-.422-.201-.424-.198-.425-.193-.428-.189-.429-.185-.432-.177-.426-.177-.435-.172-.436-.168-.438-.164-.44-.159-.44-.154-.444-.15-.445-.146-.445-.141-.447-.137-.449-.132-.45-.128-.45-.122-.454-.119-.453-.113-.455-.11-.456-.104-.457-.1-.458-.094-.459-.09-.46-.086-.46-.08-.463-.077-.463-.071-.463-.067-.464-.062-.465-.058-.465-.052-.466-.048-.467-.044-.467-.038-.468-.034-.467-.03-.469-.025-.468-.02-.469-.016-.469-.011-.47-.007-.469-.002-.47.002-.46.007-.47.011-.47.016-.47.02-.468.025-.469.03-.468.034-.468.039-.468.043-.467.048-.467.053-.466.057-.465.062-.465.067-.464.072-.463.076-.463.08-.462.086-.46.09-.46.096-.46.1-.458.104-.457.109-.456.113-.455.119-.453.123-.453.127-.45.132-.45.137-.449.141-.447.146-.446.15-.444.155-.443.159-.44.163-.44.168-.439.172-.437.177-.435.18-.433.105-.245.189-.432.191-.429.196-.426.2-.425.204-.422.208-.42.213-.419.216-.416.22-.414.226-.41.229-.41.233-.408.237-.404.241-.402.245-.4.25-.397.253-.394.258-.392.26-.389.266-.387.27-.384.273-.38.277-.379.28-.376.285-.372.288-.37.292-.367.296-.364.3-.36.303-.359.306-.355.31-.352.314-.349.317-.346.32-.343.325-.339.327-.337.33-.334.19-.188.336-.33.339-.325.342-.322.344-.318.348-.316.35-.31.355-.309.357-.305.36-.3.362-.298.366-.294.369-.289.371-.287.375-.282.377-.278.38-.275.383-.27.385-.268.388-.263.391-.259.393-.255.396-.25.399-.248.401-.243.404-.238.405-.235.409-.23.41-.227.413-.223.415-.218.418-.214.42-.21.42-.206.424-.2.426-.198.428-.194.43-.189.43-.185.427-.177.435-.177.436-.172.438-.168.44-.163.441-.16.443-.154.445-.15.445-.146.447-.14.45-.138.45-.132.45-.127.452-.123.454-.119.455-.113.456-.109.457-.105.458-.099.46-.095.46-.09.46-.086.462-.08.462-.077.464-.07.464-.068.465-.062.465-.058.466-.052.467-.048.467-.044.467-.038.468-.034.468-.03.47-.025.468-.02.47-.016.468-.01.47-.008.47-.002.461.002.47.007.47.011.468.016.47.02.468.025.468.03.468.034.468.04.467.042.466.048.466.053.466.057.465.062.464.067.463.072.463.076.461.081.461.085.461.091.46.095.457.1.457.104.455.11.455.112.454.12.452.122.452.127.45.132.448.137.447.141.446.146.444.15.443.155.441.16.44.162.438.168.436.172.435.177.433.181.245.104.433.19.43.19.425.196.425.2.422.204.42.208.42.213.415.216.413.221.412.225.41.23.406.232.405.237.402.241.4.245.396.25.395.253.392.258.39.261.386.265.383.27.381.273.38.277.374.28.373.285.37.288.367.293.364.295.361.3.358.303.355.306.352.311.35.313.345.317.342.321.34.324.337.327.333.33.188.19.331.336.325.34.322.341.318.344.315.348.312.351.308.354.304.357.301.36.298.362.293.366.29.37.286.37.283.375.278.377.275.38.271.383.267.385.262.388.26.391.254.394.252.396.246.398.243.401.24.404.234.406.23.408.227.41.222.413.218.415.214.418.211.42.205.421.202.424.197.425.193.428.19.43.184.431.178.426.177.435.172.436.168.438.163.44.16.441.154.443.15.445.146.445.141.448.136.448.133.45.127.451.123.453.118.453.114.455.11.456.103.457.1.458.095.46.09.46.086.46.08.462.077.463.071.463.067.464.062.465.057.465.053.466.048.467.043.467.04.468.033.467.03.47.024.467.021.47.015.468z"/><path style="stroke:none;stroke-width:1;stroke-dasharray:none;stroke-linecap:butt;stroke-dashoffset:0;stroke-linejoin:miter;stroke-miterlimit:10;fill:#fff;fill-rule:evenodd;opacity:1" transform="translate(-64.49 -185.28)" d="M114.214 191.27c-24.152 0-43.73 19.58-43.73 43.73 0 24.151 19.578 43.73 43.73 43.73 24.151 0 43.73-19.579 43.73-43.73 0-24.15-19.579-43.73-43.73-43.73zm6.64 64.368-1.1 1.231-.629.918h25.562v1.793h-26.79l-1.14 1.665h21.832v1.793h-23.06l-1.969 2.876-3.993-2.132.36-.744H98.74c-.49 1.69-.89 3.041-1.002 3.42l-.19.642h-4.482l.686-4.06h-6.811v-1.794h7.114l.281-1.666H83.772v-1.793h10.867l.485-2.865a32.926 32.926 0 0 1-.638-1.57h-6.349v-1.795h5.75c-.453-1.58-.684-3.19-.15-4.066a1.583 1.583 0 0 1 1.306-.767c.653-.035.914-.118 1.008-.16-.002-.172-.11-.649-.792-1.944-.45-.857-2.21-2.06-3.623-3.027-2.136-1.46-3.547-2.427-3.226-3.618.28-1.042 1.636-1.14 2.214-1.185 2.175-.157 4.026.712 5.33 1.484-.794-1.618-2.516-3.389-3.918-4.832-1.867-1.92-2.993-3.08-2.526-4.186.378-.896 1.493-.896 1.858-.896.31 0 .664.025 1.084.078 1.985.247 3.538.817 4.66 1.348a112.73 112.73 0 0 0-1.293-2.416c-2.638-4.839-3.722-7.08-3.033-8.24.237-.4.657-.629 1.153-.629.4 0 .855.143 1.434.45.983.52 1.837.784 2.54.784.96 0 1.337-.515 1.423-.659.868-3.248 3.124-10.555 5.84-10.555.442 0 .87.172 1.236.498 1.781 1.583 1.354 5.345 1.01 8.368v.003a37.97 37.97 0 0 0-.186 1.912c1.09-.326 2.732-.645 4.065-.645.508 0 2.051 0 2.578 1.064.314.634.154 1.374-.474 2.2-.378.495-.873 1.094-1.412 1.75l-.002.001v.001c-1.112 1.348-4.483 5.437-4.038 6.281 0 0 .11.104.54.135.563.04 1.077.062 1.53.08 1.628.07 2.61.11 2.892 1.026.312 1.01-.522 1.757-4.227 4.515-3.856 2.87-4.378 4.4-4.306 4.653.03.026.282.151.89.151.472 0 1.055-.072 1.734-.215 2.63-.55 4.567.281 4.99 2.058.488 2.058-1.265 4.55-4.265 6.061-4.404 2.222-6.22 5.114-6.556 5.704-.113.61-.482 2.013-.939 3.665h12.232l2.15-4.439h-8.576v-1.794h9.443l.02-.042c-.786-1.146-2.598-4.09-2.25-6.432.132-.892.572-1.635 1.273-2.149 1.155-.846 2.255-.975 3.06-1.069.266-.032.67-.079.758-.146.04-.06.241-.524-.378-3.004-.242-.968-.479-1.854-.693-2.657-.87-3.255-1.35-5.048-.536-6.109.242-.316.714-.693 1.577-.693.317 0 .67.048 1.081.147.67.16 1.428.323 1.972.323.273 0 .474-.044.524-.115.07-.096.362-.724-.633-3.594-1.62-4.682-2.02-7.65-1.188-8.82a1.508 1.508 0 0 1 1.258-.649c.58 0 1.21.286 1.98.901 1.263 1.008 1.862 1.158 2.107 1.158a.315.315 0 0 0 .255-.108c.316-.32.837-1.47.781-5.572-.079-5.768.601-7.206 1.201-7.815a1.501 1.501 0 0 1 1.083-.472c.93 0 1.635.856 2.086 1.498.19.272.376.44.485.44.261 0 .804-.427 1.241-.77.942-.742 2.156-1.68 3.741-1.539.817.072 1.39.321 1.75.762.498.61.414 1.341.347 1.93-.098.848-.067 1.055.472 1.311.27.13.598.191 1.004.191.451 0 .93-.078 1.353-.147.38-.062.738-.12 1.057-.12.752 0 1.113.35 1.283.642.427.74.027 1.725-.807 3.18-1.198 2.085-3.269 3.765-4.78 4.991-.436.353-.938.76-1.285 1.082l.133.014 4.025.391c.465-.139 1.666-.47 2.536-.47 1.022 0 1.402.471 1.54.865.303.861-.329 1.78-2.332 3.383-2.497 2.002-5.243 3.165-7.248 4.015-.674.287-1.468.623-1.929.881.31.14.788.211 1.431.211.682 0 1.437-.079 2.166-.155.682-.07 1.327-.138 1.88-.138.441 0 1.614 0 2.034.937.445.99-.334 2.17-1.638 3.638-2.815 3.17-6.429 4.46-8.698 5.108 2.508 1.085 3.693 2.134 3.886 3.387.256 1.666-1.33 2.878-3.01 4.161-1.335 1.02-2.849 2.176-2.99 3.33-.062.5.137 1.03.606 1.617.672.842 1.054 1.601 1.16 2.293h9.31v1.793h-9.779c-1.098 1.375-3.772 1.631-6.167 1.855-1.028.096-2.439.23-2.747.434z"/><path style="stroke:none;stroke-width:1;stroke-dasharray:none;stroke-linecap:butt;stroke-dashoffset:0;stroke-linejoin:miter;stroke-miterlimit:10;fill:#fff;fill-rule:evenodd;opacity:1" transform="translate(-64.49 -185.28)" d="m111.931 263.012 1.057.564 5.39-7.86 1.184-1.317c.576-.642 1.723-.778 3.87-.979 1.734-.163 4.64-.437 5.005-1.297.136-.32-.15-.972-.763-1.74-.775-.97-1.107-1.966-.985-2.957.233-1.9 2.065-3.3 3.682-4.534h.001c1.08-.826 2.42-1.85 2.325-2.464-.04-.259-.476-1.21-4.423-2.642-.296-.107-1.08-.39-1.046-1.17.035-.81.752-1 1.94-1.318 2.053-.548 5.877-1.569 8.773-4.828.732-.824 1.055-1.313 1.197-1.583a3.514 3.514 0 0 0-.252-.008c-.46 0-1.06.062-1.694.128-.776.081-1.578.165-2.353.165-1.125 0-1.932-.182-2.537-.57-.69-.445-1.016-.965-.966-1.544.091-1.062 1.231-1.545 3.301-2.422 1.91-.809 4.524-1.917 6.828-3.763.498-.4.856-.715 1.111-.96-.554.105-1.135.27-1.369.345l-.176.056-4.387-.426c-.537-.052-1.794-.175-2.084-1.139-.31-1.033.664-1.824 2.278-3.133l.002-.002c1.48-1.2 3.323-2.695 4.355-4.492.28-.487.455-.834.563-1.078-.083.012-.167.026-.253.04-.465.076-1.044.171-1.64.171-.68 0-1.26-.119-1.777-.365-1.745-.833-1.574-2.33-1.482-3.135l.001-.013c.023-.202.056-.495.03-.597-.01.003-.03-.003-.066-.013a2.131 2.131 0 0 0-.436-.078c-.905-.073-1.695.547-2.47 1.157l-.007.005c-.72.567-1.467 1.154-2.349 1.154-.738 0-1.395-.405-1.955-1.205a3.605 3.605 0 0 0-.53-.629c-.214.43-.638 1.854-.577 6.365.053 3.83-.335 5.881-1.297 6.855a2.11 2.11 0 0 1-1.533.643c-.887.001-1.882-.478-3.226-1.55-.35-.279-.58-.405-.716-.463-.172.69.074 2.983 1.48 7.042.957 2.762 1.073 4.275.4 5.221-.41.576-1.078.868-1.985.868-.729 0-1.579-.178-2.389-.372-.492-.118-.855-.075-.856-.075-.22.402.366 2.591.882 4.523.217.812.457 1.708.701 2.685.618 2.475.646 3.685.106 4.467-.498.721-1.305.815-2.018.898-.705.083-1.434.168-2.208.736-.319.234-.497.54-.559.965-.262 1.761 1.523 4.598 2.232 5.544l.328.436zm9.388-12.488-1.71-.542 12.271-38.734 1.71.542z"/><path style="stroke:none;stroke-width:1;stroke-dasharray:none;stroke-linecap:butt;stroke-dashoffset:0;stroke-linejoin:miter;stroke-miterlimit:10;fill:#fff;fill-rule:evenodd;opacity:1" transform="translate(-64.5 -185.29)" d="m96.981 254.686-1.793 10.621h1.019c1.271-4.309 3.127-10.776 3.217-11.577l.017-.159.072-.143c.08-.157 1.984-3.874 7.412-6.61 2.488-1.254 3.571-3.02 3.327-4.047-.177-.744-1.122-.856-1.669-.856a5.94 5.94 0 0 0-1.207.14c-.8.168-1.507.253-2.103.253-1.764 0-2.383-.75-2.593-1.382-.655-1.977 2.324-4.71 4.938-6.655.711-.529 2.098-1.562 2.934-2.282l-.604-.028c-.468-.019-1-.04-1.583-.083-1.312-.094-1.845-.714-2.06-1.219-.763-1.776 1.302-4.49 4.303-8.129.523-.635 1.003-1.216 1.37-1.696.095-.126.155-.223.194-.296-.148-.04-.417-.088-.872-.088-1.412 0-3.46.467-4.15.781-.486.221-1.01.116-1.339-.252-.514-.576-.43-1.52-.172-3.79.25-2.194.667-5.864-.419-6.83-.044-.039-.067-.048-.067-.048-.878.136-2.849 4.575-4.109 9.316l-.045.128c-.286.658-1.258 1.773-3.088 1.773-.997 0-2.134-.334-3.378-.993a2.976 2.976 0 0 0-.074-.038c.4 1.365 2.005 4.311 2.934 6.014.645 1.183 1.254 2.3 1.668 3.167l.002.004c.75 1.57.93 1.945.597 2.471l-.264.418-.55.026c-.345 0-.618-.159-1.114-.448-.953-.554-2.729-1.586-5.504-1.933a7.502 7.502 0 0 0-.77-.062c.415.548 1.227 1.382 1.862 2.037 1.614 1.661 3.624 3.728 4.454 5.76.565 1.383.774 2.046.408 2.593-.191.282-.5.445-.849.445-.437 0-.807-.236-1.479-.666l-.017-.01c-1.099-.704-2.958-1.895-5.082-1.736-.07.004-.136.01-.196.016.532.453 1.43 1.067 2.088 1.517 1.74 1.191 3.54 2.422 4.198 3.673.873 1.66 1.28 2.793.774 3.682-.458.805-1.452.985-2.388 1.041-.217.716.531 3.452 1.64 5.933zm3.137-5.28-1.773-.269 4.3-28.336 1.772.27z"/><path style="stroke:none;stroke-width:1;stroke-dasharray:none;stroke-linecap:butt;stroke-dashoffset:0;stroke-linejoin:miter;stroke-miterlimit:10;fill:#fff;fill-rule:evenodd;opacity:1" transform="translate(-64.49 -185.28)" d="M99.258 261.246c.158-.55.318-1.11.475-1.666H111.6l-.806 1.666z"/></svg>